<svg width="151" height="84" viewBox="0 0 151 84" fill="none" xmlns="http://www.w3.org/2000/svg">
<path fill-rule="evenodd" clip-rule="evenodd" d="M53.6036 32H59.5576C59.3147 32.2091 59.1171 32.4737 59.0059 32.8493C58.1865 32.8877 57.363 33.0072 56.5436 33.2164C55.6254 33.4511 54.8265 34.0187 54.8265 34.9961C54.8265 35.3119 54.9089 35.6107 55.0489 35.871L55.0407 35.6662L55.1642 35.6022C55.2754 35.5424 55.3948 35.4912 55.5101 35.44C55.8065 35.3119 56.1154 35.2052 56.4242 35.1156C58.2359 34.5864 60.9041 34.5864 62.7158 35.1156C63.0247 35.2052 63.3335 35.3162 63.63 35.44C63.7452 35.4869 63.8647 35.5424 63.9758 35.6022L64.0994 35.6662L64.0911 35.871C64.2311 35.6107 64.3135 35.3119 64.3135 34.9961C64.3135 34.0187 63.5146 33.4426 62.5964 33.2164C61.7235 33.003 60.8506 32.8749 59.9776 32.8451C60.1588 32.6061 60.4388 32.4524 60.7188 32.303C60.8959 32.2049 61.0729 32.111 61.2335 32H65.5364C66.1211 32 66.5987 32.4951 66.5987 33.1011V50.8943C66.5987 51.5004 66.1211 51.9955 65.5364 51.9955H53.6036C53.0189 51.9955 52.5413 51.5004 52.5413 50.8943V33.1011C52.5372 32.4951 53.0148 32 53.6036 32ZM60.4594 40.664C61.9706 39.772 62.6623 38.7434 62.7488 37.0405C62.1353 39.1232 61.2376 40.1305 60.4594 40.664ZM55.3618 38.0008C55.5759 40.9884 58.6889 41.2402 59.57 42.9303C60.4512 41.2402 63.5641 40.9841 63.7782 38.0008L63.877 35.7985C61.7482 34.6504 57.3959 34.6504 55.2671 35.7985L55.3618 38.0008Z" fill="url(#paint0_linear_80_11110)"/>
<path fill-rule="evenodd" clip-rule="evenodd" d="M37.3309 32H49.2637C49.8484 32 50.326 32.4951 50.326 33.1011V50.8943C50.326 51.5004 49.8484 51.9955 49.2637 51.9955H37.3309C36.7462 51.9955 36.2686 51.5004 36.2686 50.8943V33.1011C36.2686 32.4951 36.7462 32 37.3309 32ZM44.2525 45.6874C45.7637 44.7954 46.4555 43.7668 46.5419 42.0638C45.9284 44.1466 45.0308 45.1539 44.2525 45.6874ZM39.0932 43.1863C39.3073 46.1739 42.4202 46.43 43.3014 48.1159C44.1826 46.4257 47.2954 46.1696 47.5096 43.1863L47.6084 40.9841C45.4796 39.836 41.1273 39.836 38.9985 40.9841L39.0932 43.1863ZM42.7373 38.0349C41.9179 38.0733 41.0944 38.1928 40.275 38.402C39.3567 38.6367 38.5579 39.2043 38.5579 40.1817C38.5579 40.4975 38.6403 40.7963 38.7803 41.0566L38.7721 40.8518L38.8956 40.7878C39.0068 40.728 39.1261 40.6768 39.2415 40.6256C39.5379 40.4975 39.8468 40.3908 40.1556 40.3012C41.9673 39.772 44.6355 39.772 46.4472 40.3012C46.7561 40.3908 47.0649 40.5018 47.3613 40.6256C47.4766 40.6725 47.596 40.728 47.7072 40.7878L47.8307 40.8518L47.8225 41.0566C47.9625 40.7963 48.0449 40.4975 48.0449 40.1817C48.0449 39.2043 47.246 38.6282 46.3278 38.402C45.4549 38.1886 44.582 38.0605 43.7091 38.0307C43.8902 37.7916 44.1702 37.638 44.4502 37.4886C45.0679 37.1514 45.669 36.8228 45.7431 35.8796C44.5985 36.029 45.1749 35.9735 44.0467 36.6948C43.5032 36.9935 42.9473 37.2966 42.7373 38.0349Z" fill="url(#paint1_linear_80_11110)"/>
<path fill-rule="evenodd" clip-rule="evenodd" d="M21.0623 32H22.7794L22.8205 32.9347C23.0347 35.9223 26.1476 36.1741 27.0287 37.8642C27.9099 36.1741 31.0228 35.918 31.2369 32.9347L31.2781 32H32.9951C33.5798 32 34.0574 32.4951 34.0574 33.1011V50.8943C34.0574 51.5004 33.5798 51.9954 32.9951 51.9954H31.2822L31.3357 50.8132C29.2069 49.6651 24.8546 49.6651 22.7258 50.8132L22.7794 51.9954H21.0623C20.4776 51.9997 20 51.5004 20 50.8943V33.1011C20 32.4951 20.4776 32 21.0623 32ZM30.2898 32C29.6846 33.7797 28.8652 34.6803 28.1446 35.1711C29.5157 34.3602 30.2116 33.434 30.3928 32H30.2898ZM26.4687 47.8683C25.6493 47.9067 24.8258 48.0262 24.0064 48.2354C23.0882 48.4701 22.2894 49.0377 22.2894 50.0151C22.2894 50.3309 22.3717 50.6297 22.5117 50.89L22.5035 50.6852L22.627 50.6212C22.7382 50.5614 22.8576 50.5102 22.9729 50.459C23.2694 50.3309 23.5782 50.2242 23.887 50.1346C25.6987 49.6054 28.3669 49.6054 30.1787 50.1346C30.4875 50.2242 30.7963 50.3352 31.0928 50.459C31.2081 50.5059 31.3275 50.5614 31.4386 50.6212L31.5622 50.6852L31.554 50.89C31.694 50.6297 31.7763 50.3309 31.7763 50.0151C31.7763 49.0377 30.9775 48.4616 30.0593 48.2354C29.1863 48.022 28.3134 47.8939 27.4405 47.864C27.6216 47.625 27.9016 47.4714 28.1816 47.322C28.7993 46.9848 29.4004 46.6562 29.4746 45.713C28.3299 45.8623 28.9063 45.8069 27.7781 46.5282C27.2346 46.8227 26.6787 47.1257 26.4687 47.8683Z" fill="url(#paint2_linear_80_11110)"/>
<path fill-rule="evenodd" clip-rule="evenodd" d="M93.9725 43.5022C97.2829 43.5022 99.6879 40.9115 99.6879 37.749V37.7191C99.6879 34.5565 97.3117 32 94.0013 32C90.6909 32 88.2859 34.5907 88.2859 37.749V37.7788C88.2859 40.9457 90.6621 43.5022 93.9725 43.5022ZM94.0013 41.2444C92.0988 41.2444 90.7523 39.6567 90.7523 37.749V37.7191C90.7523 35.8113 92.07 34.2578 93.9725 34.2578C95.875 34.2578 97.2215 35.8454 97.2215 37.7532V37.7831C97.2215 39.6909 95.9038 41.2444 94.0013 41.2444ZM78.1236 43.5021C80.5162 43.5021 81.9861 41.9614 81.9861 39.8658V39.836C81.9861 37.7703 80.5613 36.9764 79.1039 36.7204L81.8176 34.0358V32.1921H74.5665V34.2876H78.7827L76.2216 36.9551L76.5879 38.5129H77.5681C78.8858 38.5129 79.6678 39.0208 79.6678 39.9256V39.9555C79.6678 40.7835 79.038 41.3042 78.1484 41.3042C77.0616 41.3042 76.2955 40.8261 75.5586 39.9683L73.9406 41.5816C74.8588 42.7083 76.1929 43.5021 78.1236 43.5021ZM102.583 43.3106H100.178L104.777 32.1115H106.955L111.546 43.3106H109.08L108.1 40.8181H103.562L102.583 43.3106ZM105.835 35.0521L104.411 38.6586H107.26L105.835 35.0521ZM113.206 43.3101H115.569V39.9128L116.809 38.5769L120.136 43.3101H122.969L118.402 36.9082L122.771 32.1921H119.921L115.569 37.0533V32.1921H113.206V43.3101ZM131.998 40.0238C131.998 42.2346 130.372 43.4723 128.058 43.4723C126.436 43.4723 124.793 42.8833 123.508 41.6926L124.904 39.9598C125.871 40.7835 126.88 41.3085 128.107 41.3085C129.075 41.3085 129.655 40.9116 129.655 40.2586V40.2287C129.655 39.6098 129.289 39.294 127.494 38.816C125.332 38.2441 123.936 37.621 123.936 35.4144V35.3845C123.936 33.3701 125.501 32.0342 127.691 32.0342C129.256 32.0342 130.59 32.5421 131.677 33.4469L130.45 35.2906C129.503 34.6078 128.568 34.1938 127.663 34.1938C126.757 34.1938 126.283 34.6206 126.283 35.1626V35.1967C126.283 35.9266 126.744 36.1656 128.597 36.6564C130.771 37.2454 131.998 38.0563 131.998 39.9939V40.0238ZM76.2956 52C77.1153 52 77.7491 51.6671 78.2105 51.2617V49.2471H76.2629V50.1306H77.255V50.7922C77.0038 50.98 76.6871 51.0696 76.3288 51.0696C75.5339 51.0696 74.9739 50.4465 74.9739 49.5971V49.5843C74.9739 48.7947 75.5423 48.1375 76.2589 48.1375C76.7778 48.1375 77.0865 48.3082 77.428 48.6069L78.0499 47.8302C77.5846 47.4205 77.0944 47.1943 76.2916 47.1943C74.9367 47.1943 73.9446 48.2741 73.9446 49.5971V49.6099C73.9407 50.9842 74.9001 52 76.2956 52ZM85.9225 51.9183H84.918L86.8329 47.2407H87.7427L89.6616 51.9183H88.6323L88.2244 50.877H86.3304L85.9225 51.9183ZM87.2814 48.4698L86.6847 49.9764H87.8785L87.2814 48.4698ZM96.5087 51.9184H97.4721V48.9052L98.72 50.8727H98.7487L100.009 48.8881V51.9184H100.989V47.2748H99.9267L98.7487 49.2381L97.5712 47.2748H96.5087V51.9184ZM108.256 47.2748H109.24V51.9184H108.256V47.2748ZM116.508 51.9184H117.484V48.965L119.654 51.9184H120.49V47.2748H119.518V50.1343L117.418 47.2748H116.508V51.9184ZM131.784 51.2617C131.323 51.6671 130.689 52 129.87 52C128.478 52 127.514 50.9842 127.514 49.6099V49.5971C127.514 48.2741 128.507 47.1943 129.861 47.1943C130.664 47.1943 131.154 47.4205 131.62 47.8302L130.998 48.6069C130.656 48.3082 130.348 48.1375 129.829 48.1375C129.112 48.1375 128.544 48.7947 128.544 49.5843V49.5971C128.544 50.4465 129.108 51.0696 129.903 51.0696C130.261 51.0696 130.578 50.98 130.829 50.7922V50.1306H129.837V49.2471H131.784V51.2617Z" fill="white"/>
<defs>
<linearGradient id="paint0_linear_80_11110" x1="65.9079" y1="32.7839" x2="52.766" y2="50.5667" gradientUnits="userSpaceOnUse">
<stop stop-color="#F8B900"/>
<stop offset="1" stop-color="#E67508"/>
</linearGradient>
<linearGradient id="paint1_linear_80_11110" x1="49.6389" y1="32.784" x2="36.4969" y2="50.5667" gradientUnits="userSpaceOnUse">
<stop stop-color="#F8B900"/>
<stop offset="1" stop-color="#E67508"/>
</linearGradient>
<linearGradient id="paint2_linear_80_11110" x1="33.3699" y1="32.7839" x2="20.2278" y2="50.5667" gradientUnits="userSpaceOnUse">
<stop stop-color="#F8B900"/>
<stop offset="1" stop-color="#E67508"/>
</linearGradient>
</defs>
</svg>
