<svg width="151" height="84" viewBox="0 0 151 84" fill="none" xmlns="http://www.w3.org/2000/svg">
<g clip-path="url(#clip0_98_2853)">
<path d="M37.8163 33.2092C39.4907 34.465 40.7465 34.9673 42.8396 35.972C44.3465 36.6418 47.193 37.7301 49.3698 38.8185C46.607 37.1441 43.3419 35.0511 43.3419 31.3673C43.3419 25.5906 58.2442 26.0092 65.3605 31.3673C65.3605 31.3673 60.7558 24.5859 50.4582 24.5859C43.6768 24.5859 38.1512 27.7673 36.3093 30.4464L36.393 30.6138C36.393 30.5301 36.1419 31.9534 37.8163 33.2092Z" fill="url(#paint0_linear_98_2853)"/>
<path d="M43.4256 53.0516C43.4256 49.7028 46.1047 47.6935 48.6163 46.1865C45.6024 47.6935 40.4954 49.6191 39.3233 50.2888C38.1512 50.9586 37.4814 51.0423 36.9791 52.047C36.6442 52.633 36.4768 53.554 36.3931 54.14C38.3186 56.8191 43.7605 59.833 50.5419 59.833C60.8396 59.833 65.4442 53.0516 65.4442 53.0516C58.4117 58.4098 43.4256 58.8284 43.4256 53.0516Z" fill="url(#paint1_linear_98_2853)"/>
<path d="M39.3232 50.2881C40.4953 49.6175 45.6023 47.692 48.6163 46.1858C50.8767 44.7626 53.0535 43.6742 53.0535 42.2509C53.0535 40.9951 51.3791 39.9905 49.4535 38.8184C47.2767 37.73 44.3465 36.6416 42.9232 35.9719C40.8302 34.9672 39.5744 34.4649 37.9 33.2091C36.2256 31.9533 36.4767 30.6137 36.4767 30.6137L36.3093 30.4463C35.8907 31.0323 35.6395 31.7021 35.6395 32.2044C35.6395 35.4695 42.086 37.144 42.086 42.1672C42.086 47.1068 35.6395 48.9486 35.6395 52.13C35.6395 52.7161 35.8907 53.3858 36.393 54.0564C36.4767 53.4695 36.5605 52.5486 36.8953 51.9626C37.4814 51.0416 38.1512 50.9579 39.3232 50.2881Z" fill="url(#paint2_linear_98_2853)"/>
<path d="M51.2117 40.8274C51.2117 40.8274 52.1326 41.4135 52.3 41.9158C52.4675 42.4181 51.8814 43.2553 51.3791 43.5902C50.8768 43.9243 50.1233 44.0088 50.0396 43.8414C49.7884 43.3382 51.0442 43.0042 50.8768 42.2507C50.7093 41.4972 50.207 41.1623 49.8721 40.9111C49.621 40.5763 49.2861 40.2414 49.4535 40.1577C49.5372 39.9065 51.2117 40.8274 51.2117 40.8274Z" fill="url(#paint3_linear_98_2853)"/>
<path fill-rule="evenodd" clip-rule="evenodd" d="M98.4628 39.9143L98.4545 39.9153C98.422 39.8589 98.4252 39.8041 98.4284 39.7505V39.7504C98.4292 39.7364 98.43 39.7224 98.4302 39.7085C98.4294 39.5214 98.4294 39.3341 98.4294 39.1467C98.4294 38.9592 98.4294 38.7717 98.4285 38.5842C98.4285 38.4678 98.4285 38.3523 98.4176 38.2376C98.4017 38.0676 98.3641 37.901 98.2611 37.7578C98.1539 37.6122 98.0183 37.5209 97.8291 37.5276C97.7639 37.5289 97.6982 37.526 97.6328 37.523L97.5846 37.5209C97.3452 37.5125 97.1091 37.4857 96.8881 37.3819C96.882 37.3794 96.8742 37.3817 96.8635 37.3849C96.8589 37.3862 96.8536 37.3878 96.8478 37.3891C96.8447 37.3899 96.8413 37.3905 96.8378 37.3911V37.6331V45.3597L96.8376 45.4058V45.4058V45.4058V45.4059V45.4059V45.4059V45.406V45.406V45.406C96.8372 45.4448 96.8369 45.4839 96.8387 45.5221C96.8398 45.5481 96.8445 45.5737 96.8498 45.6021C96.8525 45.6167 96.8554 45.6321 96.8579 45.6485L96.9061 45.6503C97.1217 45.6583 97.3304 45.666 97.5369 45.631C97.6708 45.6083 97.804 45.5765 97.9337 45.5363C98.2343 45.4426 98.3816 45.2199 98.4185 44.916C98.4286 44.8284 98.4286 44.7395 98.4285 44.6497L98.4285 44.6305C98.4294 43.6337 98.4294 42.6369 98.4294 41.6401V41.6266C98.4294 41.5608 98.4316 41.4961 98.4337 41.4325V41.4325V41.4324V41.4323V41.4323V41.4322V41.4321L98.4338 41.4318L98.4352 41.388C98.6395 41.2842 98.8471 41.2448 99.0548 41.2147C99.3813 41.1661 99.7078 41.1695 100.029 41.2448C100.331 41.3151 100.522 41.4826 100.561 41.8099C100.598 42.1147 100.631 42.4186 100.634 42.725C100.635 43.0131 100.636 43.3011 100.637 43.5892C100.637 43.9349 100.638 44.2806 100.64 44.6263C100.642 44.741 100.654 44.8574 100.674 44.9704C100.734 45.2852 100.925 45.4953 101.225 45.5983C101.345 45.6393 101.477 45.6603 101.603 45.6762C101.807 45.6996 102.008 45.6912 102.216 45.6402C102.217 45.623 102.219 45.6065 102.221 45.5905C102.224 45.5565 102.227 45.5247 102.227 45.4928V44.7988C102.228 44.1687 102.229 43.5389 102.23 42.9093V42.9091V42.9088L102.23 42.8751C102.23 42.467 102.23 42.0589 102.231 41.6509C102.233 41.2741 102.122 40.9267 101.954 40.5951C101.838 40.3691 101.669 40.1975 101.456 40.0643C101.124 39.8576 100.763 39.7496 100.374 39.7353C100.123 39.7261 99.8702 39.7269 99.6182 39.7412C99.2507 39.7621 98.884 39.7939 98.5298 39.9053C98.5144 39.9102 98.4968 39.9116 98.48 39.9128L98.4799 39.9129C98.4741 39.9133 98.4683 39.9137 98.4628 39.9143ZM73.8088 39.9957V39.125V38.3071L73.8086 38.0312C73.8084 37.846 73.8082 37.6596 73.8088 37.4707C73.8514 37.4819 73.8921 37.4934 73.9316 37.5046C74.0249 37.5309 74.1115 37.5554 74.1998 37.5695C74.2834 37.5824 74.3683 37.588 74.4531 37.5935L74.4531 37.5935L74.4532 37.5935C74.5109 37.5973 74.5686 37.6011 74.6259 37.6072C74.728 37.6172 74.8293 37.6273 74.929 37.6432C75.1157 37.6733 75.2295 37.7914 75.2999 37.9588C75.361 38.1053 75.3811 38.2602 75.3919 38.4167C75.3963 38.4883 75.3962 38.5593 75.3962 38.6313V38.6314V38.6314V38.6315V38.6316V38.6316V38.6317V38.6317V38.6318V38.6319L75.3961 38.6629V44.69C75.3961 44.7015 75.3959 44.7129 75.3958 44.7242C75.3954 44.7467 75.395 44.769 75.3961 44.7913C75.4003 44.8566 75.3752 44.9076 75.3375 44.9587C75.1676 45.1931 74.9382 45.3455 74.6761 45.4552C74.4158 45.5648 74.1412 45.6101 73.864 45.6469C73.3157 45.7214 72.7648 45.7407 72.2131 45.6904C71.8455 45.6561 71.4864 45.5883 71.1414 45.4501C70.5914 45.2316 70.2113 44.8482 69.997 44.2965C69.8722 43.9767 69.8019 43.6451 69.7701 43.3044C69.7374 42.9528 69.7207 42.5986 69.7567 42.2453C69.7927 41.8811 69.8773 41.5337 70.0271 41.2013C70.218 40.7777 70.5211 40.4554 70.9129 40.2134C71.2645 39.9949 71.6454 39.8576 72.0573 39.8032C72.4383 39.7513 72.8167 39.7487 73.1968 39.8032C73.3667 39.8266 73.5283 39.8727 73.684 39.9472C73.7056 39.9576 73.7275 39.9657 73.7597 39.9775L73.7599 39.9776C73.7739 39.9827 73.79 39.9886 73.8088 39.9957ZM73.8 44.1277L73.8031 44.102L73.8031 44.102C73.8072 44.0685 73.8113 44.0345 73.8113 44.0001C73.8113 43.1219 73.8096 42.2453 73.8071 41.3654C73.8071 41.3369 73.8021 41.308 73.7971 41.2793C73.7953 41.2692 73.7936 41.2591 73.792 41.249L73.7787 41.2429C73.7462 41.228 73.7188 41.2154 73.6907 41.208C73.3441 41.1209 72.9917 41.0841 72.6375 41.1209C72.1946 41.1703 71.6546 41.4022 71.4654 42.0779C71.3792 42.3843 71.365 42.6949 71.3884 43.008C71.4001 43.1654 71.4403 43.3161 71.4981 43.4626C71.6454 43.8368 71.9133 44.0729 72.2993 44.186C72.6333 44.2839 72.9707 44.294 73.3106 44.2571L73.3497 44.2533C73.4973 44.239 73.6486 44.2244 73.7971 44.1575C73.7979 44.1476 73.7989 44.1377 73.8 44.1277ZM91.2695 45.5336C91.2623 45.7376 91.2629 45.9324 91.2635 46.1247V46.1252V46.1258V46.1264V46.1269V46.1275C91.2637 46.201 91.2639 46.2742 91.2637 46.3474C91.2631 46.527 91.2633 46.7073 91.2635 46.8882V46.8885V46.8889V46.8893V46.8897V46.89V46.8904V46.8908V46.8912V46.8915L91.2637 47.1654V47.9574C91.2539 47.9586 91.2455 47.9604 91.2382 47.9619C91.2257 47.9645 91.2168 47.9664 91.2109 47.9632C90.9715 47.846 90.7128 47.8334 90.4541 47.8217C90.3855 47.8175 90.3185 47.8167 90.2507 47.8167C90.1125 47.8175 90.0003 47.7598 89.9074 47.6618C89.8095 47.5605 89.7483 47.4383 89.7232 47.3027C89.7006 47.1628 89.6814 47.0188 89.6788 46.8774C89.6738 46.6275 89.6744 46.3767 89.6751 46.1264V46.1261C89.6753 46.0427 89.6755 45.9593 89.6755 45.876C89.6755 45.4483 89.6757 45.0205 89.6758 44.5928V44.5928V44.5927V44.5927V44.5927V44.5926V44.5926V44.5925V44.5925V44.5925C89.6763 43.3101 89.6768 42.0279 89.673 40.7448C89.6721 40.5916 89.714 40.4735 89.8195 40.363C90.0355 40.1336 90.3009 39.9846 90.5998 39.9001C90.8024 39.844 91.0108 39.8071 91.2193 39.777C91.7618 39.6991 92.3068 39.6924 92.8519 39.7351C93.2186 39.7644 93.5777 39.8364 93.9227 39.9737C94.4727 40.1914 94.8545 40.574 95.0696 41.1257C95.2053 41.4707 95.2756 41.8307 95.3057 42.1982C95.3334 42.523 95.3392 42.852 95.3124 43.1777C95.2798 43.5888 95.1793 43.9831 94.9868 44.3507C94.8084 44.6897 94.5623 44.9627 94.2375 45.1703C93.7787 45.4641 93.278 45.6207 92.7389 45.6542C92.3763 45.676 92.0163 45.6718 91.658 45.6115C91.5814 45.5985 91.5049 45.5825 91.4198 45.5646C91.3728 45.5548 91.3232 45.5444 91.2695 45.5336ZM91.2771 44.1849C91.2954 44.1911 91.3124 44.1976 91.3287 44.2038C91.3521 44.2128 91.3741 44.2212 91.3968 44.2276C91.5467 44.2674 91.6997 44.2852 91.8526 44.3031C91.9089 44.3096 91.9652 44.3162 92.0214 44.3239C92.4282 44.3791 92.7891 44.2711 93.129 44.0593C93.2696 43.9706 93.386 43.855 93.4605 43.7068C93.5166 43.598 93.5652 43.485 93.6037 43.3694C93.6949 43.0865 93.7016 42.7934 93.6899 42.4996C93.6774 42.2149 93.5861 41.9546 93.4321 41.7143C93.3065 41.5175 93.1357 41.3769 92.9163 41.3007C92.6518 41.2094 92.3788 41.1374 92.0975 41.1575C91.9225 41.1705 91.7484 41.1925 91.5738 41.2146L91.5738 41.2146L91.5737 41.2146C91.5112 41.2225 91.4486 41.2304 91.3859 41.2379C91.36 41.2419 91.3355 41.253 91.3121 41.2637L91.302 41.2683L91.2898 41.2737L91.2788 41.2781C91.2578 41.4397 91.2553 43.9279 91.2771 44.1849ZM57.5284 43.6218C57.5209 43.8227 57.6163 43.9558 57.7653 44.0571C57.8909 44.1425 58.0332 44.1936 58.1806 44.222C58.3137 44.248 58.4502 44.2681 58.5849 44.2723C59.0622 44.2873 59.5385 44.2672 60.0116 44.1994C60.3213 44.1551 60.6319 44.1149 60.9425 44.0755C60.9696 44.0721 60.9971 44.0729 61.0273 44.0738H61.0274H61.0275H61.0275H61.0276C61.0421 44.0742 61.0572 44.0747 61.0731 44.0747C61.0754 44.0875 61.0782 44.1004 61.0809 44.1132C61.0865 44.1389 61.0921 44.1645 61.0932 44.1902C61.1008 44.4305 61.0798 44.6658 61.0078 44.8968C60.904 45.2317 60.6939 45.4619 60.3598 45.5783C60.0936 45.6729 59.819 45.719 59.5402 45.7324C59.0906 45.7541 58.641 45.7558 58.194 45.6939C57.8423 45.6453 57.4991 45.5649 57.1709 45.4243C56.5857 45.1731 56.1939 44.747 55.9896 44.1458C55.8799 43.821 55.8196 43.4861 55.7962 43.1454C55.7627 42.6556 55.7694 42.1667 55.8665 41.6811C55.9235 41.399 56.0114 41.1285 56.152 40.8749C56.2927 40.6204 56.4836 40.4127 56.7272 40.2503C57.0788 40.0167 57.4681 39.8803 57.8834 39.8166C58.3639 39.7421 58.847 39.7354 59.3301 39.779C59.6223 39.8049 59.9077 39.8677 60.1823 39.9782C60.7023 40.1858 61.0447 40.5576 61.2121 41.0917C61.3427 41.5078 61.3662 41.9348 61.3318 42.3651C61.3209 42.494 61.2833 42.6188 61.2272 42.736C61.1091 42.983 60.9241 43.1521 60.6612 43.2341C60.4519 43.2978 60.2376 43.3363 60.0208 43.3564C59.7227 43.384 59.4238 43.3965 59.1233 43.3865C58.667 43.3714 58.2124 43.4091 57.767 43.528L57.745 43.5325C57.6724 43.5473 57.5983 43.5625 57.5284 43.6218ZM57.4889 42.4499L57.4953 42.4496C57.5099 42.449 57.5253 42.4484 57.5384 42.4421C57.7544 42.3492 57.9822 42.3165 58.2149 42.3032C58.3273 42.297 58.4397 42.2907 58.5522 42.2844C58.6709 42.2778 58.7898 42.2711 58.9089 42.2646C59.1082 42.2546 59.2949 42.201 59.4757 42.1131C59.7453 41.9817 59.8826 41.5497 59.5151 41.3127C59.3878 41.2307 59.2514 41.1721 59.1065 41.1294C58.734 41.0189 58.3664 41.0348 58.0098 41.1938C57.844 41.2684 57.7059 41.3764 57.6054 41.5271C57.4447 41.769 57.3928 42.1458 57.4807 42.4505L57.4889 42.4499ZM82.931 43.0397V42.6931C82.936 42.6931 82.9418 42.6922 82.9469 42.6906L82.9382 42.4901L82.9381 42.4879V42.4879V42.4878V42.4878V42.4877C82.9329 42.3653 82.9277 42.2425 82.9217 42.1196C82.9017 41.7043 82.7752 41.3176 82.5894 40.95C82.535 40.842 82.4596 40.7407 82.3809 40.6486C82.0611 40.2769 81.6668 40.0224 81.1929 39.8943C80.7149 39.7645 80.2293 39.7193 79.7362 39.7402C79.2841 39.7603 78.8437 39.8399 78.4234 40.014C78.1103 40.1429 77.8315 40.3204 77.6063 40.5758C77.3593 40.8546 77.1718 41.171 77.0655 41.5277C76.9332 41.9706 76.8763 42.4202 76.9432 42.8806C76.9492 42.9242 76.953 42.9678 76.9569 43.0114L76.9569 43.0116L76.9617 43.064C76.9968 43.424 77.0663 43.7781 77.1726 44.123C77.2656 44.4228 77.4238 44.6798 77.6415 44.905C77.8985 45.1721 78.2066 45.3479 78.5616 45.4475C79.1853 45.6216 79.8207 45.6736 80.4637 45.6376C80.8187 45.6175 81.1644 45.5429 81.4977 45.4149C82.1783 45.1528 82.5952 44.653 82.7978 43.9665C82.8866 43.6659 82.9326 43.3553 82.931 43.0397ZM81.2884 41.9589C81.3913 42.2309 81.4215 42.5122 81.4097 42.7969C81.419 43.007 81.3972 43.2063 81.3386 43.4056C81.2088 43.8442 80.9057 44.087 80.4763 44.1816C80.0761 44.2696 79.6767 44.2361 79.2841 44.1289C78.9023 44.0251 78.7005 43.7446 78.5992 43.3838C78.4996 43.0271 78.4854 42.6588 78.5105 42.2912C78.5222 42.1154 78.58 41.9446 78.6528 41.783C78.7365 41.5947 78.8772 41.4615 79.058 41.3669C79.3812 41.1987 79.7286 41.156 80.0878 41.1744C80.2502 41.1819 80.4118 41.2062 80.5684 41.2598C80.9183 41.3803 81.1586 41.6131 81.2884 41.9589ZM114.349 41.2007C114.302 40.8273 114.353 40.4966 114.541 40.1969C114.69 39.9541 114.927 39.8386 115.192 39.7774C115.309 39.749 115.434 39.7364 115.555 39.7347C116.08 39.7264 116.604 39.7222 117.128 39.7691C117.527 39.8042 117.908 39.908 118.258 40.0964C118.679 40.3225 118.948 40.6841 119.11 41.1287C119.211 41.405 119.265 41.6946 119.269 41.9893C119.277 42.5402 119.277 43.0911 119.272 43.6437C119.267 43.8965 119.217 44.1435 119.136 44.3846C118.923 45.0293 118.474 45.4135 117.818 45.5651C117.557 45.6228 117.295 45.6521 117.028 45.6488C116.586 45.6446 116.141 45.6463 115.7 45.6488C115.494 45.6496 115.294 45.6186 115.092 45.5759C114.855 45.5257 114.644 45.4186 114.449 45.2754C114.148 45.0527 113.991 44.7396 113.93 44.3804C113.861 43.971 113.899 43.565 114.011 43.1673C114.13 42.7487 114.389 42.4523 114.784 42.2681C115.068 42.1384 115.367 42.0839 115.675 42.0639C115.791 42.0572 115.907 42.0559 116.022 42.0545C116.097 42.0536 116.172 42.0528 116.247 42.0505C116.54 42.0429 116.833 42.0354 117.122 41.981C117.221 41.9626 117.32 41.9324 117.415 41.8939C117.475 41.8705 117.534 41.8294 117.584 41.7834C117.715 41.6536 117.725 41.4636 117.602 41.3221C117.554 41.2685 117.492 41.2191 117.426 41.189C117.321 41.1396 117.21 41.0986 117.099 41.0726C116.671 40.9788 116.238 40.9479 115.8 40.9721C115.426 40.9922 115.054 41.0324 114.688 41.1145C114.62 41.1299 114.553 41.1474 114.481 41.1665L114.48 41.1665L114.48 41.1666C114.439 41.1775 114.396 41.1889 114.349 41.2007ZM117.7 42.8957L117.69 42.8968C117.676 42.8985 117.668 42.8994 117.663 42.9036C117.342 43.1623 116.979 43.2837 116.566 43.2812C116.411 43.2803 116.254 43.3013 116.099 43.3264C115.944 43.3515 115.795 43.3992 115.662 43.4871C115.529 43.5742 115.476 43.6964 115.498 43.8546C115.52 44.0254 115.614 44.1485 115.765 44.2138C115.871 44.259 115.986 44.2883 116.098 44.3042C116.417 44.3494 116.737 44.3469 117.057 44.3352C117.112 44.3335 117.165 44.326 117.218 44.3159C117.492 44.259 117.631 44.115 117.681 43.8412C117.737 43.5405 117.732 43.2373 117.726 42.9203L117.725 42.8919C117.715 42.8936 117.707 42.8948 117.7 42.8957ZM64.4094 41.3414C64.4116 41.3312 64.414 41.3195 64.4161 41.3052C64.537 41.2615 64.656 41.2456 64.773 41.23L64.7733 41.2299C64.811 41.2249 64.8484 41.2199 64.8857 41.214C65.1687 41.1713 65.4525 41.1361 65.7397 41.1537C65.9113 41.1654 66.0771 41.1989 66.2328 41.2751C66.4128 41.363 66.5426 41.502 66.5987 41.6937C66.6246 41.7841 66.6288 41.882 66.6288 41.9758C66.6292 42.3612 66.6291 42.7466 66.629 43.1319V43.1346V43.1346V43.1347V43.1347C66.6288 43.6475 66.6287 44.1601 66.6296 44.6725C66.6305 44.788 66.6414 44.9052 66.6656 45.0174C66.7176 45.261 66.8582 45.436 67.0951 45.5231C67.1906 45.5582 67.2894 45.585 67.389 45.6101C67.5839 45.6581 67.7824 45.6553 67.9805 45.6524C68.0139 45.6519 68.0472 45.6514 68.0805 45.6512C68.107 45.6506 68.1335 45.6462 68.1598 45.6419L68.1599 45.6419L68.1804 45.6386L68.1977 45.6361C68.2244 45.5655 68.2224 45.4991 68.2205 45.4345C68.22 45.4179 68.2195 45.4014 68.2195 45.3849C68.2203 44.2128 68.2203 43.0407 68.2195 41.8703C68.2195 41.754 68.2178 41.6384 68.207 41.5229C68.1525 40.9017 67.8645 40.427 67.317 40.118C67.2165 40.062 67.1094 40.0159 67.003 39.9715C66.659 39.8317 66.2964 39.7647 65.9297 39.738C65.2349 39.6877 64.5408 39.7045 63.8518 39.8141C63.6023 39.8543 63.3578 39.9138 63.1326 40.0352C62.93 40.1457 62.8279 40.3056 62.8279 40.5475C62.8308 41.6919 62.8309 42.8367 62.8309 43.9816C62.831 44.4717 62.831 44.9618 62.8312 45.4519C62.8312 45.4944 62.8351 45.5373 62.8388 45.5788L62.8388 45.5789L62.8397 45.5886C62.8409 45.6018 62.842 45.6149 62.843 45.6277C63.0204 45.6604 63.3662 45.6671 63.5445 45.6319C63.6777 45.6051 63.8108 45.5733 63.9389 45.5281C64.2009 45.4377 64.3449 45.2401 64.3976 44.9755C64.4161 44.8826 64.4244 44.7846 64.4244 44.6909C64.4253 44.0973 64.4244 43.5054 64.4211 42.9127C64.4191 42.6066 64.4153 42.3003 64.4115 41.994L64.4115 41.9934L64.4114 41.9928L64.4114 41.9923C64.4089 41.788 64.4064 41.5838 64.4043 41.3797C64.4039 41.3678 64.4063 41.3562 64.4094 41.3414ZM108.581 41.3109C108.579 41.323 108.577 41.3334 108.575 41.3431C108.573 41.3494 108.572 41.3553 108.571 41.3611C108.57 41.3667 108.57 41.3723 108.57 41.3778C108.572 41.4511 108.575 41.5245 108.578 41.5981C108.585 41.7559 108.591 41.914 108.591 42.0711C108.596 42.9359 108.596 43.8016 108.591 44.6664C108.591 44.7819 108.58 44.8992 108.555 45.0113C108.5 45.2608 108.351 45.4366 108.109 45.5287C107.943 45.5932 107.771 45.6351 107.593 45.6451C107.466 45.653 107.338 45.6516 107.21 45.6502L107.163 45.6497L107.103 45.6493C107.086 45.6493 107.068 45.645 107.049 45.6404C107.041 45.6383 107.032 45.6361 107.022 45.6342C107 45.5658 107.002 45.5001 107.003 45.4354V45.4352L107.004 45.4076L107.004 45.3872V41.5034C107.004 41.4052 107.005 41.307 107.005 41.2089C107.007 40.98 107.009 40.7513 107.002 40.5222C106.995 40.3037 107.091 40.1597 107.269 40.0534C107.434 39.9529 107.617 39.8993 107.803 39.8566C108.097 39.7871 108.394 39.752 108.693 39.7361C109.129 39.7101 109.564 39.6967 110.001 39.7285C110.369 39.7545 110.73 39.8148 111.08 39.9353C111.274 40.0023 111.458 40.0894 111.628 40.2049C112.047 40.4896 112.284 40.8881 112.358 41.3845C112.381 41.5461 112.392 41.7111 112.392 41.8735C112.394 43.0396 112.393 44.2057 112.392 45.3743V45.3762V45.378V45.3799V45.3898C112.392 45.4064 112.393 45.423 112.393 45.4398C112.396 45.5042 112.398 45.5702 112.368 45.6392C111.985 45.6685 111.609 45.6635 111.245 45.5162C110.995 45.414 110.865 45.2165 110.821 44.9569C110.805 44.8707 110.802 44.7811 110.802 44.6932C110.802 44.2431 110.803 43.7932 110.803 43.3434V43.3431C110.804 42.8936 110.804 42.4442 110.804 41.9949L110.804 41.9658C110.805 41.9075 110.805 41.8489 110.794 41.7914C110.749 41.557 110.619 41.3829 110.401 41.2749C110.246 41.1978 110.081 41.1652 109.908 41.1535C109.628 41.1359 109.352 41.1711 109.075 41.2096C108.967 41.2242 108.861 41.2432 108.754 41.2621L108.673 41.2765C108.653 41.2807 108.633 41.2891 108.614 41.2973C108.603 41.3022 108.592 41.3071 108.581 41.3109ZM88.274 40.7655C88.3878 40.439 88.3971 40.1016 88.3477 39.7474C88.3386 39.7466 88.3303 39.7459 88.3226 39.7451C88.3137 39.7441 88.3056 39.7432 88.2981 39.7424L88.2981 39.7424C88.2769 39.74 88.2605 39.7382 88.2439 39.7382C88.0623 39.7382 87.8808 39.738 87.6992 39.7378H87.699H87.6988C87.275 39.7372 86.8508 39.7367 86.4254 39.739C86.2295 39.7399 86.0328 39.7683 85.8411 39.8194C85.1018 40.0195 84.6765 40.5076 84.5216 41.2494C84.4848 41.4235 84.4756 41.5993 84.4756 41.7768V44.5957C84.4756 44.6769 84.4773 44.7598 84.4873 44.8402C84.5057 45.0059 84.5652 45.1558 84.6832 45.2789C84.7895 45.3919 84.9176 45.4572 85.0708 45.4898L85.1538 45.5073C85.4454 45.5685 85.7374 45.6298 86.0035 45.7728C86.0086 45.7759 86.017 45.7743 86.0292 45.772L86.0293 45.772C86.0372 45.7705 86.0467 45.7688 86.0579 45.7678L86.0593 45.7297C86.0615 45.6712 86.0638 45.6111 86.0638 45.5526C86.0642 45.0421 86.0642 44.5318 86.0642 44.0217C86.0642 43.5104 86.0642 42.9993 86.0646 42.4884L86.0646 42.4603C86.0645 42.3473 86.0645 42.2338 86.073 42.1209C86.0813 42.0121 86.0956 41.9032 86.1199 41.7986C86.1634 41.601 86.2789 41.4562 86.4589 41.3607C86.5929 41.2904 86.7352 41.2477 86.8867 41.2377C86.9981 41.2315 87.1092 41.2264 87.2205 41.2212C87.2925 41.2178 87.3645 41.2145 87.4368 41.2109C87.466 41.2093 87.4953 41.2086 87.5247 41.208C87.5914 41.2064 87.6583 41.2049 87.7239 41.1933C87.981 41.1497 88.1836 41.025 88.274 40.7655ZM103.824 39.6602C103.857 39.6716 103.887 39.6827 103.915 39.6932L103.916 39.6933C103.981 39.7174 104.038 39.7385 104.096 39.7531C104.183 39.7757 104.271 39.7899 104.358 39.7966C104.502 39.8092 104.644 39.8176 104.788 39.815C105.038 39.8109 105.196 39.9389 105.302 40.1491C105.371 40.2856 105.393 40.4354 105.406 40.5853C105.413 40.6722 105.413 40.7617 105.413 40.8504V40.8507L105.413 41.8068C105.413 42.7618 105.413 43.7172 105.411 44.6725C105.411 44.7939 105.399 44.9178 105.374 45.0376C105.325 45.2745 105.176 45.4352 104.95 45.5215C104.758 45.5968 104.555 45.632 104.352 45.6454C104.183 45.6571 104.014 45.6621 103.847 45.642C103.843 45.6304 103.839 45.6204 103.836 45.6115C103.83 45.5962 103.825 45.5842 103.825 45.5725C103.824 43.6109 103.824 41.6502 103.824 39.6602ZM103.778 38.5076C103.779 38.9839 104.162 39.3741 104.63 39.3598C105.013 39.3816 105.47 39.0551 105.477 38.5226C105.483 38.0354 105.082 37.6653 104.625 37.667C104.111 37.6678 103.777 38.1183 103.778 38.5076Z" fill="white"/>
</g>
<defs>
<linearGradient id="paint0_linear_98_2853" x1="50.8345" y1="38.7892" x2="50.8345" y2="24.6243" gradientUnits="userSpaceOnUse">
<stop stop-color="#161B60"/>
<stop offset="0.0355" stop-color="#14266B"/>
<stop offset="0.1871" stop-color="#0E4F93"/>
<stop offset="0.3423" stop-color="#0971B4"/>
<stop offset="0.4995" stop-color="#058CCE"/>
<stop offset="0.6595" stop-color="#029FE0"/>
<stop offset="0.824" stop-color="#01AAEB"/>
<stop offset="1" stop-color="#00AEEF"/>
</linearGradient>
<linearGradient id="paint1_linear_98_2853" x1="50.9191" y1="46.1314" x2="50.9191" y2="59.7777" gradientUnits="userSpaceOnUse">
<stop stop-color="#4E0900"/>
<stop offset="0.0923" stop-color="#6D2505"/>
<stop offset="0.2404" stop-color="#984B0C"/>
<stop offset="0.3908" stop-color="#BC6B11"/>
<stop offset="0.5415" stop-color="#D78415"/>
<stop offset="0.6928" stop-color="#EB9619"/>
<stop offset="0.8451" stop-color="#F7A01A"/>
<stop offset="1" stop-color="#FBA41B"/>
</linearGradient>
<linearGradient id="paint2_linear_98_2853" x1="44.3461" y1="54.1242" x2="44.346" y2="30.4229" gradientUnits="userSpaceOnUse">
<stop stop-color="#660308"/>
<stop offset="0.4381" stop-color="#DE1A23"/>
<stop offset="0.6237" stop-color="#DE1A23"/>
<stop offset="1" stop-color="#660308"/>
</linearGradient>
<linearGradient id="paint3_linear_98_2853" x1="50.8688" y1="43.9503" x2="50.8688" y2="40.0468" gradientUnits="userSpaceOnUse">
<stop stop-color="#DE1A22"/>
<stop offset="1" stop-color="#F9D7D8"/>
</linearGradient>
<clipPath id="clip0_98_2853">
<rect width="83.7209" height="36" fill="white" transform="translate(35.6395 24)"/>
</clipPath>
</defs>
</svg>
