<svg width="151" height="84" viewBox="0 0 151 84" fill="none" xmlns="http://www.w3.org/2000/svg">
<g clip-path="url(#clip0_98_14250)">
<path d="M58.1381 67.8288H58.549V65.3663L60.9913 67.9676V64.5339H60.5805V66.9733L58.1381 64.3721V67.8288ZM55.3191 67.8288H57.0653V67.4473H55.7185V66.1987H57.0196V65.8172H55.7185V64.8923H57.0653V64.5108H55.3191V67.8288ZM63.8218 64.9038H63.0457V67.8288H62.6348V64.9038H61.8587V64.5223H63.8104V64.9038H63.8218ZM64.7576 67.8288H66.5038V67.4473H65.1571V66.1987H66.4582V65.8172H65.1571V64.8923H66.5038V64.5108H64.7576V67.8288ZM69.5625 65.4704C69.5739 65.9328 69.243 66.3374 68.775 66.3953L69.8022 67.8288H69.3114L68.3527 66.43H68.1816V67.8288H67.7707V64.5223H68.2614C68.5467 64.5223 68.8663 64.5223 69.1174 64.6726C69.4028 64.8461 69.5739 65.1466 69.5625 65.4704ZM68.2957 64.8923H68.193V66.0831H68.3185C68.7294 66.0831 69.1859 66.0022 69.1859 65.482C69.1859 64.9732 68.7065 64.8923 68.2957 64.8923ZM71.6168 64.9038H72.3929V64.5223H70.4414V64.9038H71.2174V67.8288H71.6283L71.6168 64.9038ZM75.7712 67.8288L75.3946 66.9964H73.8994L73.5228 67.8288H73.0892L74.6413 64.3836L76.1935 67.8288H75.7712ZM74.6527 65.297L74.0707 66.6381H75.2348L74.6527 65.297ZM77.4832 64.5339H77.0723V67.8404H77.4832V64.5339ZM78.944 67.8288H78.5331V64.3721L80.9755 66.9733V64.5339H81.3864V67.9676L78.944 65.3663V67.8288ZM84.1484 67.8982L85.1299 65.6438H85.1413L85.5179 67.8288H85.9402L85.2782 64.3836L84.1597 66.9848L83.0413 64.3836L82.3793 67.8288H82.8016L83.1782 65.6438H83.1897L84.1484 67.8982ZM88.8619 67.8288H87.1158V64.5223H88.8619V64.9038H87.5152V65.8287H88.8277V66.2103H87.5266V67.4589H88.8733L88.8619 67.8288ZM89.9804 67.8288H90.3913V65.3663L92.8337 67.9676V64.5339H92.4228V66.9733L89.9804 64.3721V67.8288ZM95.6755 64.9038H94.8994V67.8288H94.4885V64.9038H93.7125V64.5223H95.6755V64.9038Z" fill="url(#paint0_radial_98_14250)"/>
<path d="M49.8636 60.117H50.8338V54.2439L56.6772 60.4407V52.2323H55.7071V58.0591L49.8636 51.8623V60.117ZM58.3777 60.117H62.5549V59.2152H59.3479V56.2324H62.4636V55.3307H59.3479V53.1225H62.5549V52.2207H58.3777V60.117ZM68.5239 53.134H66.675V60.117H65.7049V53.134H63.856V52.2323H68.5239V53.134ZM73.9565 56.14V57.0417H75.9652C75.9195 58.325 74.6185 59.3886 73.4201 59.3886C71.7424 59.3886 70.3957 57.8163 70.3957 56.1631C70.3957 54.3942 71.7538 52.9607 73.5 52.9607C74.4701 52.9838 75.3717 53.4578 75.9424 54.2439L76.6272 53.5849C75.2234 51.8161 72.6668 51.5502 70.9321 52.9722C69.9734 53.7583 69.4141 54.9376 69.4255 56.1978C69.4255 58.3828 71.1831 60.2904 73.363 60.2904C75.5429 60.2904 77.0494 58.6256 77.0494 56.4636V56.1515L73.9565 56.14ZM84.3994 60.117L83.5092 58.14H79.9369L79.0467 60.117H78.0082L81.7287 51.897L85.4494 60.117H84.3994ZM81.7287 54.0474L80.3478 57.2382H83.1097L81.7287 54.0474ZM90.7793 60.2789L93.1075 54.9029H93.1303L94.0434 60.1054H95.0478L93.4614 51.8854L90.7907 58.0938L88.12 51.8854L86.5336 60.1054H87.538L88.4511 54.9029H88.4739L90.7793 60.2789ZM101.119 60.117H96.9423V52.2323H101.119V53.134H97.9124V55.3422H101.028V56.244H97.9124V59.2267H101.119V60.117Z" fill="white"/>
<path d="M75.7256 42.7988L81.0326 48.2326H70.4299L75.7256 42.7988Z" fill="#73C15D"/>
<path d="M75.7255 42.7988V48.2326H70.4185L75.7255 42.7988Z" fill="#34B778"/>
<path d="M84.6734 33.4922L91.7951 40.7872L84.6734 48.0823L77.5516 40.7872L84.6734 33.4922Z" fill="#73C15D"/>
<path d="M84.6734 40.7871H91.7951L84.6734 48.0821L77.5516 40.7871H84.6734Z" fill="#27B575"/>
<path d="M84.6734 33.4922V48.0939L77.5516 40.7988L84.6734 33.4922Z" fill="#34B778"/>
<path d="M81.3407 40.7871H84.6847V48.0821L77.563 40.7871H81.3407Z" fill="#00926A"/>
<path d="M82.9158 40.7873C83.7147 40.452 84.3424 39.8162 84.6734 39.0068C85.0043 39.8162 85.632 40.452 86.4309 40.7873C86.0201 40.926 85.6549 41.1688 85.381 41.504C85.0842 41.8162 84.8445 42.1746 84.6734 42.5677C84.6734 42.5677 84.5821 42.2093 84.0571 41.585C83.7603 41.2266 83.3609 40.9491 82.9158 40.7873Z" fill="white"/>
<path d="M84.6733 35.9775L89.4211 40.787L84.6733 45.5964L79.9254 40.787L84.6733 35.9775ZM84.6733 37.7695L81.6831 40.7985L84.6733 43.8276L87.6635 40.7985L84.6733 37.7695Z" fill="#010101"/>
<path d="M66.3098 33.4922L73.4316 40.7872L66.3098 48.0823L59.1881 40.7872L66.3098 33.4922Z" fill="#73C15D"/>
<path d="M66.3098 40.7871H73.4316L66.3098 48.0821L59.1881 40.7871H66.3098Z" fill="#27B575"/>
<path d="M66.3098 33.4922V48.0939L59.1881 40.7988L66.3098 33.4922Z" fill="#34B778"/>
<path d="M62.9658 40.7871H66.3098V48.0821L59.1881 40.7871H62.9658Z" fill="#00926A"/>
<path d="M64.5522 40.7873C65.3511 40.452 65.9789 39.8162 66.3098 39.0068C66.6408 39.8162 67.2685 40.452 68.0674 40.7873C67.6566 40.926 67.2913 41.1688 67.0174 41.504C66.7207 41.8162 66.4811 42.1746 66.3098 42.5677C66.3098 42.5677 66.2186 42.2093 65.6935 41.585C65.3854 41.2266 64.9974 40.9491 64.5522 40.7873Z" fill="white"/>
<path d="M66.3098 35.9775L71.0576 40.787L66.3098 45.5964L61.562 40.787L66.3098 35.9775ZM66.3098 37.7695L63.3196 40.7985L66.3098 43.8276L69.3 40.7985L66.3098 37.7695Z" fill="#010101"/>
<path d="M75.6114 20L84.913 29.538L75.6114 39.0759L66.3098 29.538L75.6114 20Z" fill="#73C15D"/>
<path d="M75.6114 29.5381H84.913L75.6114 39.076L66.3098 29.5381H75.6114Z" fill="#27B575"/>
<path d="M75.6114 20V39.0759L66.3098 29.538L75.6114 20Z" fill="#34B778"/>
<path d="M71.2403 29.5381H75.6V39.076L66.2985 29.5381H71.2403Z" fill="#00926A"/>
<path d="M73.306 29.5377C74.3446 29.0984 75.1778 28.2659 75.6 27.2139C76.0337 28.2659 76.8555 29.1099 77.894 29.5377C77.894 29.5377 77.2092 29.7111 76.5131 30.4626C75.8283 31.214 75.6 31.8615 75.6 31.8615C75.6 31.8615 75.4859 31.399 74.8011 30.5782C74.4131 30.1042 73.8881 29.7458 73.306 29.5377Z" fill="white"/>
<path d="M75.6114 23.5264L81.5462 29.5381L75.6114 35.55L69.6766 29.5381L75.6114 23.5264ZM75.6114 25.3068L71.4456 29.5266L75.6114 33.7464L79.7771 29.5266L75.6114 25.3068Z" fill="#010101"/>
</g>
<defs>
<radialGradient id="paint0_radial_98_14250" cx="0" cy="0" r="1" gradientUnits="userSpaceOnUse" gradientTransform="translate(75.7137 67.8321) rotate(-90) scale(3.34271 23.2414)">
<stop stop-color="#9A4D50"/>
<stop offset="1" stop-color="#BC7F6E"/>
</radialGradient>
<clipPath id="clip0_98_14250">
<rect width="51.2727" height="48" fill="white" transform="translate(49.8636 20)"/>
</clipPath>
</defs>
</svg>
