<svg width="151" height="84" viewBox="0 0 151 84" fill="none" xmlns="http://www.w3.org/2000/svg">
<g clip-path="url(#clip0_122_1662)">
<path d="M34.2169 31H36.1198L36.1125 32.7123C36.1125 32.8517 36.0431 32.9213 35.9043 32.9213L34.4105 32.9177C34.2814 32.9152 34.2169 32.8504 34.2169 32.7233V31Z" fill="white"/>
<path d="M36.4741 31H38.3295L38.3441 32.683C38.3466 32.8419 38.2686 32.9213 38.1104 32.9213L36.664 32.9103C36.5374 32.9103 36.4741 32.8468 36.4741 32.7197V31Z" fill="white"/>
<path d="M38.6984 31H40.5282L40.5574 32.672C40.5598 32.8407 40.4783 32.9238 40.3127 32.9213L38.8737 32.9103C38.7398 32.9103 38.674 32.8431 38.6765 32.7087L38.6984 31Z" fill="white"/>
<path d="M40.9373 31H42.727L42.7562 32.6683C42.7611 32.8346 42.6795 32.9177 42.5115 32.9177H41.1309C40.9751 32.9177 40.8984 32.8394 40.9008 32.683L40.9373 31Z" fill="white"/>
<path d="M43.1433 31H44.9877L44.9914 32.6977C44.9914 32.8443 44.9184 32.9177 44.7723 32.9177L43.3369 32.9213C43.1908 32.9213 43.119 32.8492 43.1214 32.705L43.1433 31Z" fill="white"/>
<path d="M45.4005 31H47.1901L47.2011 32.6903C47.2011 32.7497 47.178 32.8065 47.1369 32.8485C47.0958 32.8904 47.0401 32.914 46.9819 32.914L45.5904 32.925C45.4273 32.9274 45.3481 32.8456 45.353 32.6793L45.4005 31Z" fill="white"/>
<path d="M47.5992 31H49.429L49.4217 32.661C49.4207 32.7284 49.3934 32.7928 49.3455 32.8401C49.2977 32.8875 49.2332 32.914 49.166 32.914L47.7891 32.925C47.6308 32.925 47.5529 32.8456 47.5554 32.6867L47.5992 31Z" fill="white"/>
<path d="M49.7943 31H51.6643L51.646 32.6683C51.646 32.7241 51.6242 32.7777 51.5853 32.8174C51.5463 32.8572 51.4934 32.88 51.4378 32.881L49.9988 32.9103C49.8527 32.9128 49.7797 32.8394 49.7797 32.6903L49.7943 31Z" fill="#FF4B00"/>
<path d="M62.7089 31H64.6044L64.5971 32.7087C64.5971 32.8431 64.5302 32.9103 64.3962 32.9103L62.9572 32.9177C62.7965 32.9177 62.7162 32.837 62.7162 32.6757L62.7089 31Z" fill="#FFB919"/>
<path d="M64.9186 31H66.8105L66.8214 32.694C66.8214 32.8431 66.7472 32.9177 66.5987 32.9177H65.1596C65.0062 32.9177 64.9295 32.8407 64.9295 32.6867L64.9186 31Z" fill="white"/>
<path d="M67.183 31H69.0165L69.042 32.672C69.0469 32.8382 68.9653 32.9213 68.7973 32.9213L67.362 32.9103C67.2256 32.9103 67.1586 32.8431 67.1611 32.7087L67.183 31Z" fill="white"/>
<path d="M69.4255 31H71.2115L71.2407 32.6683C71.2432 32.8346 71.1616 32.9177 70.996 32.9177H69.6154C69.4572 32.9177 69.3805 32.8394 69.3853 32.683L69.4255 31Z" fill="white"/>
<path d="M71.6316 31H73.4797L73.4578 32.727C73.4553 32.8541 73.3908 32.9177 73.2642 32.9177L71.8179 32.9213C71.6742 32.9213 71.6036 32.8492 71.606 32.705L71.6316 31Z" fill="white"/>
<path d="M84.59 31H87.6215C88.8195 31.4204 89.2553 32.3102 88.929 33.6693C88.8998 33.7891 88.8292 33.8722 88.7172 33.9187C88.4226 34.0409 88.2643 34.2621 88.2424 34.5823C88.2326 34.6923 88.173 34.7473 88.0634 34.7473H86.219C86.0778 34.7473 86.0071 34.8182 86.0071 34.96L86.0108 36.8007C86.0108 36.9107 85.956 36.9657 85.8464 36.9657L84.7033 36.973C84.5937 36.973 84.5401 36.918 84.5426 36.808L84.59 31ZM87.5958 32.8729C87.5951 32.8161 87.5726 32.7602 87.5299 32.7083C87.4871 32.6564 87.4249 32.6095 87.3466 32.5705C87.2684 32.5314 87.1758 32.5008 87.074 32.4805C86.9722 32.4602 86.8633 32.4505 86.7535 32.452C86.6437 32.4536 86.5351 32.4663 86.4339 32.4895C86.3328 32.5126 86.241 32.5458 86.1639 32.587C86.0868 32.6283 86.0259 32.6769 85.9846 32.7299C85.9433 32.783 85.9224 32.8396 85.9232 32.8964C85.924 32.9532 85.9464 33.0092 85.9892 33.0611C86.0319 33.113 86.0942 33.1598 86.1724 33.1989C86.2507 33.238 86.3433 33.2685 86.4451 33.2889C86.5468 33.3092 86.6557 33.3188 86.7656 33.3173C86.8754 33.3158 86.984 33.303 87.0851 33.2799C87.1863 33.2567 87.2781 33.2236 87.3552 33.1823C87.4323 33.141 87.4932 33.0925 87.5345 33.0394C87.5758 32.9863 87.5966 32.9297 87.5958 32.8729Z" fill="white"/>
<path d="M90.9999 31H92.9028C93.6808 31.2897 94.2104 31.7553 94.2396 32.6683C94.2797 33.7793 94.4112 35.884 93.7392 36.5623C92.9284 37.3727 90.0467 37.116 89.8239 35.675C89.4319 33.1548 89.8239 31.5964 90.9999 31ZM92.7897 32.9847C92.7895 32.9158 92.7757 32.8477 92.7493 32.7841C92.7228 32.7206 92.6841 32.663 92.6355 32.6144C92.5868 32.5659 92.5291 32.5275 92.4656 32.5014C92.4022 32.4752 92.3342 32.4619 92.2656 32.4622L91.7762 32.4639C91.6377 32.4644 91.505 32.5201 91.4074 32.6187C91.3098 32.7174 91.2553 32.851 91.2558 32.99L91.2628 35.014C91.263 35.0829 91.2767 35.151 91.3032 35.2145C91.3297 35.278 91.3684 35.3357 91.417 35.3842C91.4657 35.4328 91.5234 35.4712 91.5869 35.4973C91.6503 35.5234 91.7183 35.5368 91.7869 35.5365L92.2763 35.5348C92.4148 35.5343 92.5474 35.4786 92.6451 35.3799C92.7427 35.2813 92.7972 35.1477 92.7967 35.0087L92.7897 32.9847Z" fill="white"/>
<path d="M96.2192 31H98.3704C99.3468 31.6698 99.6986 32.276 99.4259 32.8187C99.3628 32.9452 99.2673 33.0525 99.1492 33.1298C99.0312 33.2072 98.8948 33.2516 98.754 33.2587C98.6133 33.2658 98.4732 33.2352 98.348 33.1702C98.2229 33.1051 98.1172 33.0078 98.0417 32.8883C97.7446 32.4166 97.2796 32.32 96.6465 32.5987C96.5467 32.6427 96.4931 32.7197 96.4858 32.8297C96.4383 33.5117 96.0913 36.126 97.5888 35.499C97.7057 35.4501 97.797 35.3719 97.8627 35.2643C98.1744 34.7583 98.6541 34.6019 99.3018 34.795C99.4308 34.8317 99.4965 34.9172 99.499 35.0517C99.5392 36.2287 98.8196 36.9107 97.6509 36.9877C96.7122 37.0463 95.3499 37.083 95.2184 35.8987C95.0821 34.6984 95.0115 33.497 95.0066 32.2943C95.0066 32.1697 95.0431 32.0572 95.1162 31.957C95.4278 31.5439 95.7955 31.2249 96.2192 31Z" fill="white"/>
<path d="M100.376 31H101.639L101.694 33.0643C101.695 33.1204 101.718 33.174 101.757 33.2137C101.797 33.2533 101.85 33.2761 101.906 33.277L102.929 33.2917C102.996 33.2928 103.062 33.2681 103.112 33.2225C103.162 33.1768 103.193 33.1137 103.199 33.046L103.352 31H104.7L104.693 33.013C104.693 33.1303 104.634 33.1963 104.517 33.211L104.141 33.2623C104.019 33.277 103.958 33.3454 103.958 33.4677L103.955 34.487C103.955 34.6703 104.046 34.762 104.229 34.762L104.503 34.7583C104.533 34.7583 104.562 34.7643 104.59 34.776C104.618 34.7876 104.643 34.8047 104.664 34.8262C104.685 34.8477 104.702 34.8732 104.713 34.9012C104.724 34.9292 104.73 34.9592 104.729 34.9893L104.696 36.7713C104.694 36.9009 104.629 36.9657 104.503 36.9657L103.44 36.9803C103.296 36.9828 103.224 36.9119 103.224 36.7677L103.228 34.9307C103.228 34.9044 103.223 34.8783 103.213 34.854C103.203 34.8298 103.188 34.8078 103.169 34.7893C103.15 34.7709 103.128 34.7564 103.104 34.7467C103.079 34.7369 103.053 34.7322 103.027 34.7327L101.924 34.751C101.788 34.7534 101.72 34.8231 101.72 34.96L101.727 36.797C101.727 36.9119 101.67 36.9693 101.555 36.9693H100.46C100.33 36.9693 100.267 36.9058 100.27 36.7787L100.376 31Z" fill="white"/>
<path d="M105.507 31H109.988L109.956 32.3127C109.953 32.4202 109.898 32.474 109.791 32.474L107.143 32.4813C107.108 32.4814 107.074 32.4891 107.042 32.5039C107.01 32.5187 106.982 32.5404 106.959 32.5672C106.937 32.5941 106.92 32.6256 106.911 32.6595C106.902 32.6935 106.9 32.729 106.906 32.7637L106.961 33.0753C106.97 33.1317 106.999 33.1828 107.043 33.2197C107.086 33.2566 107.141 33.2769 107.198 33.277L108.988 33.2733C109.131 33.2733 109.203 33.3454 109.203 33.4897V34.5457C109.203 34.5982 109.182 34.6485 109.145 34.6857C109.108 34.7228 109.058 34.7437 109.006 34.7437L107.14 34.751C107.006 34.751 106.942 34.817 106.95 34.949L106.964 35.3157C106.972 35.4379 107.035 35.499 107.154 35.499H109.784C109.806 35.4985 109.828 35.5024 109.848 35.5105C109.868 35.5186 109.887 35.5306 109.903 35.546C109.918 35.5614 109.931 35.5797 109.939 35.6C109.948 35.6203 109.952 35.642 109.952 35.664L109.963 36.7897C109.963 36.9119 109.902 36.973 109.78 36.973L105.693 36.9693C105.564 36.9693 105.5 36.9058 105.5 36.7787L105.507 31Z" fill="white"/>
<path d="M110.737 31H115.193L115.178 32.2907C115.178 32.4153 115.118 32.4777 114.996 32.4777L113.889 32.474C113.763 32.474 113.699 32.5376 113.699 32.6647V36.7933C113.699 36.9107 113.64 36.9693 113.52 36.9693L112.381 36.973C112.269 36.973 112.213 36.9168 112.213 36.8043L112.216 32.7233C112.216 32.6906 112.21 32.6582 112.198 32.6279C112.185 32.5977 112.167 32.5702 112.144 32.547C112.121 32.5239 112.093 32.5055 112.063 32.493C112.033 32.4804 112.001 32.474 111.968 32.474H110.887C110.773 32.4764 110.717 32.4202 110.719 32.3053L110.737 31Z" fill="white"/>
<path d="M118.962 31H121.219C121.288 31.1124 121.314 31.2396 121.3 31.3813C121.288 31.4962 121.224 31.5537 121.11 31.5537H120.609C120.456 31.5537 120.379 31.6307 120.379 31.7847L120.383 34.5237C120.383 34.6703 120.31 34.7473 120.164 34.7547L120.018 34.7583C119.889 34.7657 119.824 34.7033 119.824 34.5713L119.828 31.8213C119.828 31.6453 119.739 31.5561 119.561 31.5537L119.028 31.55C118.977 31.5491 118.928 31.5283 118.892 31.492C118.856 31.4558 118.835 31.4069 118.834 31.3557C118.832 31.2237 118.875 31.1051 118.962 31Z" fill="white"/>
<path d="M121.848 31H122.428L123.553 33.1817C123.626 33.3259 123.698 33.3259 123.769 33.1817L124.85 31H125.5V34.6593C125.344 34.7498 125.207 34.7828 125.087 34.7583C124.948 34.729 124.88 34.6422 124.883 34.498L124.897 32.6353C124.898 32.6085 124.889 32.5823 124.872 32.5612C124.856 32.54 124.833 32.5252 124.807 32.5192C124.781 32.5132 124.753 32.5164 124.729 32.5282C124.705 32.5399 124.686 32.5597 124.675 32.584L124.119 33.7463C124.079 33.8302 124.016 33.9011 123.937 33.9511C123.859 34.0011 123.768 34.0282 123.675 34.0293C123.582 34.0304 123.491 34.0056 123.411 33.9576C123.332 33.9095 123.267 33.8402 123.225 33.7573L122.585 32.4923C122.574 32.4696 122.556 32.4514 122.533 32.4406C122.511 32.4299 122.485 32.4273 122.461 32.4333C122.436 32.4394 122.415 32.4536 122.399 32.4737C122.384 32.4938 122.376 32.5185 122.377 32.5437L122.385 34.531C122.385 34.5893 122.361 34.6453 122.32 34.6866C122.279 34.7278 122.223 34.751 122.165 34.751H122.038C121.899 34.751 121.829 34.6801 121.829 34.5383L121.848 31Z" fill="white"/>
<path d="M32 33.1963L33.7166 33.2146C33.8481 33.2146 33.9138 33.2806 33.9138 33.4126L33.9175 34.938C33.9175 35.0528 33.8603 35.1091 33.7458 35.1066L32 35.0626V33.1963Z" fill="#6414E6"/>
<path d="M35.9721 33.2284L34.3578 33.2312C34.2751 33.2313 34.2081 33.2988 34.2083 33.3818L34.211 34.9804C34.2112 35.0635 34.2784 35.1307 34.3611 35.1305L35.9754 35.1277C36.0581 35.1275 36.125 35.0601 36.1249 34.9771L36.1221 33.3784C36.1219 33.2954 36.0548 33.2282 35.9721 33.2284Z" fill="white"/>
<path d="M38.191 33.2263L36.6059 33.2319C36.5192 33.2322 36.4491 33.303 36.4494 33.3901L36.4549 34.9741C36.4552 35.0612 36.5258 35.1315 36.6125 35.1312L38.1976 35.1256C38.2844 35.1253 38.3544 35.0545 38.3541 34.9674L38.3486 33.3834C38.3483 33.2964 38.2777 33.226 38.191 33.2263Z" fill="white"/>
<path d="M40.4167 33.2267L38.8243 33.2239C38.7355 33.2238 38.6634 33.2959 38.6633 33.385L38.6605 34.969C38.6604 35.0581 38.7322 35.1304 38.821 35.1306L40.4134 35.1334C40.5021 35.1335 40.5742 35.0614 40.5744 34.9723L40.5771 33.3883C40.5773 33.2992 40.5055 33.2269 40.4167 33.2267Z" fill="white"/>
<path d="M42.6353 33.2288L41.0283 33.2232C40.9476 33.2229 40.882 33.2883 40.8817 33.3693L40.8761 34.9826C40.8758 35.0636 40.941 35.1295 41.0217 35.1298L42.6287 35.1355C42.7094 35.1357 42.775 35.0703 42.7753 34.9893L42.7809 33.376C42.7812 33.295 42.716 33.2291 42.6353 33.2288Z" fill="white"/>
<path d="M44.8472 33.2284L43.2548 33.2312C43.1681 33.2313 43.0979 33.302 43.0981 33.3891L43.1008 34.9731C43.101 35.0602 43.1714 35.1307 43.2581 35.1305L44.8506 35.1277C44.9373 35.1276 45.0075 35.0568 45.0073 34.9698L45.0046 33.3858C45.0044 33.2987 44.934 33.2282 44.8472 33.2284Z" fill="white"/>
<path d="M47.0636 33.2338L45.4931 33.2255C45.3983 33.225 45.321 33.3018 45.3205 33.3969L45.3124 34.9516C45.3119 35.0468 45.3884 35.1243 45.4832 35.1248L47.0536 35.1331C47.1485 35.1336 47.2257 35.0568 47.2262 34.9616L47.2343 33.407C47.2348 33.3118 47.1584 33.2343 47.0636 33.2338Z" fill="white"/>
<path d="M49.2573 33.2256H47.7014C47.6046 33.2256 47.5261 33.3044 47.5261 33.4016V34.9563C47.5261 35.0535 47.6046 35.1323 47.7014 35.1323H49.2573C49.3542 35.1323 49.4326 35.0535 49.4326 34.9563V33.4016C49.4326 33.3044 49.3542 33.2256 49.2573 33.2256Z" fill="white"/>
<path d="M51.4886 33.2249L49.9108 33.2193C49.818 33.219 49.7425 33.2943 49.7422 33.3874L49.7368 34.9567C49.7364 35.0499 49.8114 35.1257 49.9042 35.126L51.482 35.1315C51.5748 35.1318 51.6502 35.0566 51.6506 34.9634L51.656 33.3941C51.6564 33.301 51.5814 33.2252 51.4886 33.2249Z" fill="white"/>
<path d="M62.2291 33.2145L60.6367 33.2228C60.552 33.2233 60.4836 33.2926 60.4841 33.3776L60.4925 34.9836C60.4929 35.0687 60.5619 35.1372 60.6467 35.1368L62.2391 35.1284C62.3238 35.128 62.3921 35.0587 62.3916 34.9736L62.3833 33.3676C62.3828 33.2826 62.3138 33.214 62.2291 33.2145Z" fill="white"/>
<path d="M64.4478 33.2194L62.8335 33.2251C62.7508 33.2254 62.6839 33.2929 62.6842 33.3759L62.6898 34.9819C62.6901 35.0649 62.7574 35.132 62.8401 35.1317L64.4544 35.1261C64.5371 35.1258 64.6039 35.0582 64.6036 34.9752L64.5981 33.3692C64.5978 33.2862 64.5305 33.2191 64.4478 33.2194Z" fill="white"/>
<path d="M66.7023 33.2339L65.066 33.2253C64.9894 33.2249 64.9269 33.287 64.9265 33.3639L64.9181 34.9846C64.9177 35.0615 64.9795 35.1242 65.0561 35.1246L66.6924 35.1332C66.769 35.1337 66.8315 35.0716 66.8319 34.9946L66.8403 33.374C66.8407 33.2971 66.7789 33.2343 66.7023 33.2339Z" fill="white"/>
<path d="M68.8996 33.2256H67.3072C67.2205 33.2256 67.1501 33.2962 67.1501 33.3833V34.9746C67.1501 35.0617 67.2205 35.1323 67.3072 35.1323H68.8996C68.9864 35.1323 69.0567 35.0617 69.0567 34.9746V33.3833C69.0567 33.2962 68.9864 33.2256 68.8996 33.2256Z" fill="white"/>
<path d="M71.1312 33.2217H69.4877C69.4151 33.2217 69.3562 33.2808 69.3562 33.3537V34.9963C69.3562 35.0692 69.4151 35.1283 69.4877 35.1283H71.1312C71.2039 35.1283 71.2627 35.0692 71.2627 34.9963V33.3537C71.2627 33.2808 71.2039 33.2217 71.1312 33.2217Z" fill="white"/>
<path d="M73.3207 33.2306L71.7502 33.2278C71.6574 33.2277 71.582 33.3031 71.5819 33.3962L71.5791 34.9582C71.579 35.0514 71.6541 35.127 71.7469 35.1272L73.3174 35.1299C73.4102 35.1301 73.4855 35.0547 73.4857 34.9615L73.4884 33.3995C73.4885 33.3064 73.4135 33.2307 73.3207 33.2306Z" fill="white"/>
<path d="M75.5174 33.2287L73.9834 33.2233C73.8785 33.223 73.7932 33.308 73.7928 33.4133L73.7875 34.9386C73.7871 35.0439 73.8719 35.1296 73.9767 35.13L75.5107 35.1354C75.6156 35.1357 75.7009 35.0507 75.7013 34.9454L75.7066 33.42C75.707 33.3147 75.6222 33.2291 75.5174 33.2287Z" fill="white"/>
<path d="M77.7675 33.2217H76.1751C76.0864 33.2217 76.0144 33.2939 76.0144 33.383V34.967C76.0144 35.0561 76.0864 35.1283 76.1751 35.1283H77.7675C77.8563 35.1283 77.9282 35.0561 77.9282 34.967V33.383C77.9282 33.2939 77.8563 33.2217 77.7675 33.2217Z" fill="white"/>
<path d="M32 37.3251V35.4624L33.6837 35.4551C33.7139 35.4551 33.7439 35.4611 33.7718 35.4727C33.7997 35.4843 33.8251 35.5013 33.8464 35.5227C33.8678 35.5442 33.8847 35.5697 33.8963 35.5977C33.9079 35.6257 33.9138 35.6557 33.9138 35.6861V37.1381C33.9138 37.2725 33.8481 37.3385 33.7166 37.3361L32 37.3251Z" fill="white"/>
<path d="M35.9608 35.4669L34.3684 35.4641C34.2816 35.464 34.2112 35.5345 34.211 35.6215L34.2083 37.1982C34.2081 37.2853 34.2783 37.356 34.3651 37.3561L35.9575 37.3589C36.0442 37.3591 36.1147 37.2886 36.1148 37.2015L36.1176 35.6249C36.1177 35.5378 36.0475 35.4671 35.9608 35.4669Z" fill="white"/>
<path d="M49.2945 35.4563L47.6583 35.4678C47.5837 35.4683 47.5236 35.5295 47.5241 35.6044L47.5354 37.225C47.5359 37.3 47.5969 37.3603 47.6715 37.3598L49.3077 37.3483C49.3823 37.3478 49.4424 37.2866 49.4419 37.2117L49.4306 35.5911C49.4301 35.5161 49.3692 35.4558 49.2945 35.4563Z" fill="white"/>
<path d="M51.466 35.4555L49.8955 35.4692C49.8028 35.47 49.7282 35.5462 49.729 35.6394L49.7426 37.2013C49.7434 37.2945 49.8193 37.3693 49.9121 37.3685L51.4825 37.3547C51.5753 37.3539 51.6498 37.2777 51.649 37.1846L51.6355 35.6227C51.6346 35.5295 51.5588 35.4547 51.466 35.4555Z" fill="white"/>
<path d="M53.7085 35.4447L52.1308 35.4585C52.04 35.4593 51.9671 35.5338 51.9679 35.625L51.9816 37.2016C51.9824 37.2927 52.0566 37.3659 52.1474 37.3651L53.7251 37.3513C53.8159 37.3505 53.8888 37.276 53.888 37.1849L53.8743 35.6083C53.8735 35.5171 53.7993 35.4439 53.7085 35.4447Z" fill="white"/>
<path d="M59.9776 35.4353L58.4363 35.4461C58.3476 35.4468 58.2761 35.5195 58.2768 35.6086L58.2879 37.2072C58.2885 37.2963 58.3609 37.368 58.4497 37.3674L59.9909 37.3566C60.0797 37.356 60.1511 37.2833 60.1505 37.1942L60.1394 35.5955C60.1388 35.5064 60.0663 35.4347 59.9776 35.4353Z" fill="#E61973"/>
<path d="M62.2198 35.449L60.642 35.4545C60.5492 35.4548 60.4743 35.5306 60.4746 35.6237L60.48 37.1931C60.4804 37.2862 60.5558 37.3615 60.6486 37.3611L62.2264 37.3556C62.3192 37.3553 62.3942 37.2795 62.3939 37.1864L62.3884 35.617C62.3881 35.5239 62.3126 35.4486 62.2198 35.449Z" fill="white"/>
<path d="M64.4932 35.4646L62.7912 35.4676C62.7327 35.4677 62.6854 35.5154 62.6855 35.5741L62.6884 37.2461C62.6885 37.3048 62.736 37.3524 62.7945 37.3523L64.4965 37.3493C64.555 37.3492 64.6023 37.3015 64.6022 37.2428L64.5993 35.5708C64.5992 35.512 64.5517 35.4645 64.4932 35.4646Z" fill="white"/>
<path d="M75.5731 35.4564L73.9296 35.4679C73.861 35.4684 73.8058 35.5246 73.8063 35.5934L73.8177 37.236C73.8182 37.3049 73.8742 37.3603 73.9428 37.3598L75.5863 37.3483C75.6548 37.3478 75.7101 37.2916 75.7096 37.2228L75.6982 35.5802C75.6977 35.5113 75.6417 35.4559 75.5731 35.4564Z" fill="white"/>
<path d="M77.7609 35.4604L76.1685 35.4715C76.0798 35.4722 76.0083 35.5449 76.0089 35.634L76.0198 37.2033C76.0205 37.2924 76.0929 37.3641 76.1817 37.3635L77.7741 37.3523C77.8628 37.3517 77.9342 37.279 77.9336 37.1899L77.9227 35.6206C77.9221 35.5315 77.8496 35.4597 77.7609 35.4604Z" fill="white"/>
<path d="M32 39.5287V37.6807L33.7349 37.7063C33.8566 37.7088 33.9175 37.7699 33.9175 37.8897V39.3563C33.9175 39.4932 33.8493 39.5604 33.7129 39.558L32 39.5287Z" fill="white"/>
<path d="M35.9584 37.6968L34.3807 37.6857C34.2899 37.6851 34.2158 37.7584 34.2152 37.8496L34.2042 39.4189C34.2036 39.51 34.2767 39.5844 34.3675 39.585L35.9452 39.5961C36.036 39.5967 36.1101 39.5233 36.1107 39.4322L36.1216 37.8629C36.1223 37.7718 36.0492 37.6974 35.9584 37.6968Z" fill="white"/>
<path d="M51.4546 37.6805L49.928 37.6885C49.8291 37.689 49.7494 37.7699 49.75 37.8691L49.7581 39.4238C49.7586 39.523 49.8391 39.603 49.938 39.6025L51.4646 39.5945C51.5635 39.5939 51.6432 39.5131 51.6427 39.4139L51.6345 37.8592C51.634 37.76 51.5535 37.68 51.4546 37.6805Z" fill="white"/>
<path d="M53.7022 37.6885H52.1463C52.0515 37.6885 51.9746 37.7656 51.9746 37.8608V39.4155C51.9746 39.5107 52.0515 39.5878 52.1463 39.5878H53.7022C53.797 39.5878 53.8738 39.5107 53.8738 39.4155V37.8608C53.8738 37.7656 53.797 37.6885 53.7022 37.6885Z" fill="white"/>
<path d="M59.9757 37.6844L58.4417 37.6925C58.3509 37.693 58.2777 37.7672 58.2782 37.8584L58.2864 39.435C58.2869 39.5261 58.3609 39.5996 58.4516 39.5991L59.9856 39.5911C60.0764 39.5906 60.1496 39.5163 60.1491 39.4252L60.1409 37.8486C60.1404 37.7574 60.0664 37.684 59.9757 37.6844Z" fill="white"/>
<path d="M62.2267 37.6885H60.6416C60.5448 37.6885 60.4663 37.7673 60.4663 37.8645V39.4191C60.4663 39.5163 60.5448 39.5951 60.6416 39.5951H62.2267C62.3236 39.5951 62.402 39.5163 62.402 39.4191V37.8645C62.402 37.7673 62.3236 37.6885 62.2267 37.6885Z" fill="white"/>
<path d="M85.9926 40.7053L85.967 43.1619C85.9645 43.3208 86.0437 43.4076 86.2044 43.4223L87.2818 43.5103C87.3733 43.5217 87.4656 43.4974 87.5395 43.4422C87.6135 43.3871 87.6635 43.3054 87.679 43.2143C87.6945 43.1231 87.6744 43.0294 87.6229 42.9527C87.5714 42.8761 87.4924 42.8223 87.4024 42.8026C86.7449 42.6266 86.5696 42.1573 86.8764 41.3946C86.9227 41.2773 87.0079 41.2186 87.1321 41.2186H88.7537C88.9096 41.2186 88.9875 41.2968 88.9875 41.4533L88.9911 43.7266C88.9912 43.8279 88.9533 43.9249 88.8852 43.9979L88.1146 44.8523C88.0927 44.8765 88.0661 44.8959 88.0366 44.9091C88.007 44.9224 87.9751 44.9293 87.9429 44.9293L85.547 44.9549C85.4277 44.9549 85.3595 44.8951 85.3424 44.7753C85.2962 44.3915 85.1026 44.1935 84.7617 44.1813C84.6083 44.1764 84.5316 44.0969 84.5316 43.9429L84.5353 39.8839C84.5353 39.7666 84.5949 39.7128 84.7142 39.7226C85.0916 39.7544 85.2852 39.5723 85.295 39.1763C85.2998 39.0418 85.3692 38.9746 85.5031 38.9746H88.0671C88.1888 38.9746 88.2497 39.0369 88.2497 39.1616V40.2543C88.2497 40.3789 88.1888 40.4413 88.0671 40.4413L86.2482 40.4486C86.181 40.4486 86.1166 40.4755 86.0687 40.5236C86.0209 40.5716 85.9935 40.6369 85.9926 40.7053Z" fill="white"/>
<path d="M91.2556 43.6536V44.7536C91.2581 44.8758 91.1972 44.9369 91.073 44.9369L89.9919 44.9443C89.8677 44.9443 89.8044 44.8819 89.802 44.7573C89.7777 43.4446 89.7728 42.1368 89.7874 40.8339C89.8093 39.0593 90.9525 38.9529 92.3513 38.9603C93.7003 38.9701 94.3467 39.7413 94.2907 41.2739C94.2493 42.4253 94.2213 43.5791 94.2067 44.7353C94.2043 44.8648 94.1386 44.9308 94.0095 44.9333L92.9868 44.9406C92.8529 44.9431 92.786 44.8771 92.786 44.7426L92.7823 43.7013C92.7823 43.5424 92.7032 43.4629 92.5449 43.4629L91.4383 43.4666C91.3898 43.4666 91.3434 43.4863 91.3091 43.5214C91.2749 43.5564 91.2556 43.604 91.2556 43.6536ZM92.7948 40.8333C92.7959 40.7847 92.7875 40.7363 92.7699 40.691C92.7524 40.6456 92.7262 40.6042 92.6927 40.569C92.6592 40.5339 92.6192 40.5057 92.5749 40.486C92.5306 40.4664 92.4828 40.4557 92.4344 40.4546L91.6311 40.4363C91.5333 40.4341 91.4386 40.471 91.3678 40.5388C91.2971 40.6067 91.2561 40.7 91.2539 40.7982L91.2358 41.5973C91.2347 41.6459 91.2432 41.6943 91.2607 41.7396C91.2782 41.7849 91.3045 41.8264 91.3379 41.8615C91.3714 41.8967 91.4114 41.9249 91.4558 41.9445C91.5001 41.9642 91.5478 41.9748 91.5963 41.9759L92.3996 41.9942C92.4974 41.9964 92.5921 41.9596 92.6628 41.8917C92.7335 41.8239 92.7745 41.7306 92.7767 41.6324L92.7948 40.8333Z" fill="white"/>
<path d="M98.5421 42.693L98.2024 42.7004C98.0392 42.7053 97.9638 42.7884 97.9759 42.9497C97.9832 43.067 97.9832 43.1538 97.9759 43.21C97.9633 43.3013 97.9162 43.3841 97.8445 43.4415C97.7727 43.4989 97.6817 43.5264 97.5904 43.5184C97.499 43.5104 97.4141 43.4675 97.3533 43.3985C97.2926 43.3295 97.2605 43.2398 97.2637 43.1477L97.2747 42.8947C97.2762 42.8681 97.2722 42.8415 97.2629 42.8166C97.2536 42.7917 97.2392 42.769 97.2206 42.75C97.202 42.731 97.1797 42.7161 97.155 42.7063C97.1304 42.6965 97.104 42.692 97.0775 42.693L96.6611 42.704C96.5345 42.7089 96.4712 42.7749 96.4712 42.902L96.4748 44.75C96.4748 44.8772 96.4103 44.9407 96.2813 44.9407H95.2403C95.0894 44.9407 95.0139 44.8649 95.0139 44.7134L95.0029 39.305C95.0033 39.247 95.0206 39.1904 95.0527 39.1421C95.0847 39.0939 95.1302 39.0561 95.1834 39.0335C95.2367 39.0108 95.2953 39.0044 95.3522 39.0148C95.409 39.0253 95.4615 39.0523 95.5033 39.0924L97.0555 40.614C97.1456 40.702 97.2077 40.8072 97.2418 40.9294C97.3051 41.164 97.478 41.2765 97.7605 41.2667C97.7955 41.2651 97.8298 41.2561 97.8611 41.2402C97.8924 41.2243 97.92 41.202 97.9421 41.1746C97.9642 41.1472 97.9803 41.1155 97.9893 41.0814C97.9982 41.0474 97.9999 41.0118 97.9942 40.977C97.9358 40.6373 98.0648 40.4662 98.3813 40.4637C98.5445 40.4637 98.6419 40.3843 98.6735 40.2254C98.7344 39.9223 98.9146 39.7475 99.2141 39.701C99.365 39.679 99.4503 39.5923 99.4697 39.4407L99.5026 39.195C99.5145 39.1048 99.56 39.0228 99.6298 38.9655C99.6996 38.9081 99.7887 38.8795 99.8792 38.8856C99.9697 38.8916 100.055 38.9317 100.118 38.998C100.181 39.0642 100.217 39.1516 100.218 39.2427L100.215 44.7464C100.215 44.8735 100.153 44.937 100.029 44.937L98.9329 44.9407C98.8087 44.9407 98.7466 44.8784 98.7466 44.7537V42.8947C98.7466 42.7578 98.6784 42.6906 98.5421 42.693Z" fill="white"/>
<path d="M102.593 43.4663H105.346C105.378 43.4663 105.409 43.479 105.432 43.5017C105.454 43.5244 105.467 43.5552 105.467 43.5873L105.46 44.8193C105.46 44.8352 105.456 44.8509 105.45 44.8656C105.444 44.8803 105.436 44.8936 105.424 44.9048C105.413 44.9161 105.4 44.925 105.385 44.9311C105.371 44.9371 105.355 44.9403 105.339 44.9403H101.113C101.081 44.9403 101.051 44.9275 101.028 44.9048C101.005 44.8821 100.993 44.8514 100.993 44.8193L100.996 39.0956C100.996 39.0635 101.009 39.0327 101.032 39.01C101.054 38.9874 101.085 38.9746 101.117 38.9746H105.339C105.371 38.9746 105.402 38.9874 105.424 39.01C105.447 39.0327 105.46 39.0635 105.46 39.0956L105.467 40.3239C105.467 40.356 105.454 40.3868 105.432 40.4095C105.409 40.4322 105.378 40.4449 105.346 40.4449H102.596C102.564 40.4449 102.534 40.4577 102.511 40.4804C102.488 40.5031 102.476 40.5339 102.476 40.5659L102.483 41.1049C102.483 41.137 102.496 41.1678 102.518 41.1905C102.541 41.2132 102.572 41.2259 102.603 41.2259L104.579 41.2149C104.595 41.2149 104.611 41.2181 104.626 41.2242C104.64 41.2302 104.653 41.2391 104.665 41.2504C104.676 41.2616 104.685 41.275 104.691 41.2896C104.697 41.3043 104.7 41.3201 104.7 41.3359V42.5936C104.7 42.6095 104.697 42.6252 104.691 42.6399C104.685 42.6546 104.676 42.6679 104.665 42.6792C104.653 42.6904 104.64 42.6993 104.626 42.7054C104.611 42.7115 104.595 42.7146 104.579 42.7146L102.585 42.7036C102.569 42.7036 102.553 42.7068 102.538 42.7132C102.523 42.7195 102.51 42.7287 102.499 42.7403C102.487 42.752 102.479 42.7657 102.473 42.7808C102.467 42.796 102.464 42.8121 102.465 42.8283L102.472 43.3489C102.473 43.3804 102.486 43.4102 102.509 43.4321C102.531 43.454 102.561 43.4663 102.593 43.4663Z" fill="white"/>
<path d="M106.968 39.6016V39.0993C106.968 39.0662 106.981 39.0345 107.004 39.0111C107.028 38.9877 107.059 38.9746 107.092 38.9746H110.584C110.617 38.9746 110.648 38.9877 110.672 39.0111C110.695 39.0345 110.708 39.0662 110.708 39.0993V40.3203C110.708 40.3533 110.695 40.385 110.672 40.4084C110.648 40.4318 110.617 40.4449 110.584 40.4449H107.841C107.81 40.4448 107.78 40.4564 107.757 40.4775C107.734 40.4985 107.719 40.5275 107.717 40.5586L107.669 41.0829C107.668 41.1002 107.67 41.1176 107.675 41.134C107.681 41.1505 107.69 41.1655 107.702 41.1783C107.713 41.1911 107.727 41.2012 107.743 41.2082C107.759 41.2151 107.776 41.2187 107.793 41.2186H109.85C109.868 41.2183 109.886 41.2221 109.903 41.2297C109.92 41.2373 109.934 41.2485 109.946 41.2625C109.958 41.2765 109.967 41.293 109.972 41.3108C109.976 41.3286 109.977 41.3472 109.974 41.3653L109.897 41.7906C109.894 41.8075 109.894 41.825 109.898 41.8417C109.902 41.8585 109.91 41.8743 109.92 41.888C109.93 41.9018 109.943 41.9133 109.958 41.9218C109.973 41.9303 109.99 41.9355 110.007 41.9373L110.598 42.0033C110.629 42.0069 110.657 42.0216 110.677 42.0446C110.697 42.0676 110.708 42.0973 110.708 42.1279L110.704 44.0603C110.704 44.0915 110.693 44.1217 110.672 44.1448C110.651 44.1678 110.622 44.1822 110.591 44.1849L110.029 44.2399C110.012 44.2417 109.996 44.2469 109.981 44.2551C109.966 44.2634 109.954 44.2745 109.943 44.2879C109.933 44.3013 109.926 44.3166 109.922 44.3329C109.917 44.3493 109.917 44.3663 109.919 44.3829L109.978 44.7973C109.98 44.8151 109.979 44.8333 109.974 44.8506C109.969 44.8679 109.96 44.8839 109.948 44.8975C109.936 44.9111 109.922 44.922 109.906 44.9294C109.889 44.9368 109.871 44.9405 109.853 44.9403H106.358C106.325 44.9403 106.294 44.9271 106.27 44.9038C106.247 44.8804 106.234 44.8487 106.234 44.8156L106.23 43.5909C106.23 43.5579 106.243 43.5262 106.267 43.5028C106.29 43.4794 106.321 43.4663 106.354 43.4663H109.123C109.156 43.4663 109.187 43.4531 109.211 43.4298C109.234 43.4064 109.247 43.3747 109.247 43.3416L109.24 42.8283C109.24 42.7952 109.227 42.7635 109.203 42.7401C109.18 42.7167 109.149 42.7036 109.116 42.7036L107.085 42.7146C107.068 42.7146 107.052 42.7113 107.036 42.7048C107.021 42.6983 107.007 42.6888 106.996 42.6768C106.984 42.6648 106.975 42.6507 106.969 42.6351C106.963 42.6196 106.96 42.603 106.961 42.5863L106.979 42.0619C106.98 42.0443 106.976 42.0267 106.97 42.0104C106.963 41.9941 106.953 41.9793 106.94 41.9672C106.927 41.9551 106.912 41.9458 106.896 41.94C106.879 41.9342 106.861 41.932 106.844 41.9336L106.362 41.9666C106.345 41.9676 106.328 41.9651 106.312 41.9593C106.296 41.9535 106.281 41.9445 106.269 41.9328C106.257 41.9211 106.247 41.907 106.24 41.8914C106.234 41.8758 106.23 41.8589 106.23 41.8419L106.234 39.8289C106.234 39.8126 106.238 39.7964 106.245 39.7815C106.251 39.7666 106.261 39.7531 106.273 39.7418C106.285 39.7306 106.299 39.7218 106.314 39.716C106.329 39.7102 106.345 39.7075 106.362 39.7079L106.837 39.7263C106.853 39.7273 106.87 39.7248 106.886 39.719C106.902 39.7132 106.917 39.7041 106.929 39.6925C106.941 39.6808 106.951 39.6667 106.958 39.6511C106.965 39.6355 106.968 39.6186 106.968 39.6016Z" fill="white"/>
<path d="M32 41.7364V39.9507L33.6983 39.9287C33.8444 39.9287 33.9175 40.002 33.9175 40.1487V41.564C33.917 41.5928 33.9109 41.6211 33.8996 41.6474C33.8883 41.6737 33.8719 41.6975 33.8515 41.7173C33.8311 41.7371 33.8071 41.7525 33.7808 41.7627C33.7545 41.7729 33.7265 41.7777 33.6983 41.7767L32 41.7364Z" fill="white"/>
<path d="M35.9492 39.9019L34.4006 39.8883C34.3018 39.8874 34.221 39.9672 34.2201 40.0664L34.2065 41.6283C34.2057 41.7275 34.2851 41.8087 34.3839 41.8095L35.9325 41.8231C36.0313 41.824 36.1121 41.7442 36.113 41.645L36.1266 40.0831C36.1274 39.9839 36.048 39.9027 35.9492 39.9019Z" fill="white"/>
<path d="M51.4614 39.8926L49.9347 39.89C49.8359 39.8898 49.7556 39.9701 49.7554 40.0693L49.7527 41.6313C49.7525 41.7305 49.8325 41.8111 49.9314 41.8113L51.458 41.814C51.5569 41.8141 51.6371 41.7338 51.6373 41.6346L51.64 40.0726C51.6402 39.9734 51.5602 39.8928 51.4614 39.8926Z" fill="white"/>
<path d="M53.6929 39.8927L52.1589 39.89C52.0561 39.8898 51.9725 39.9734 51.9723 40.0766L51.9696 41.624C51.9695 41.7273 52.0527 41.8111 52.1556 41.8113L53.6896 41.814C53.7924 41.8142 53.876 41.7306 53.8762 41.6273L53.8789 40.08C53.879 39.9767 53.7958 39.8928 53.6929 39.8927Z" fill="white"/>
<path d="M59.968 39.8935L58.456 39.8962C58.3591 39.8963 58.2808 39.9753 58.2809 40.0725L58.2837 41.6418C58.2838 41.739 58.3625 41.8177 58.4593 41.8175L59.9714 41.8149C60.0682 41.8147 60.1465 41.7358 60.1464 41.6386L60.1436 40.0692C60.1435 39.972 60.0648 39.8934 59.968 39.8935Z" fill="white"/>
<path d="M62.2188 39.9009L60.6629 39.89C60.5581 39.8893 60.4724 39.974 60.4717 40.0793L60.461 41.6193C60.4603 41.7246 60.5447 41.8106 60.6496 41.8113L62.2054 41.8222C62.3103 41.8229 62.396 41.7382 62.3967 41.6329L62.4074 40.0929C62.4081 39.9876 62.3237 39.9016 62.2188 39.9009Z" fill="white"/>
<path d="M71.0535 39.8854L69.5488 39.8986C69.4378 39.8996 69.3487 39.9907 69.3497 40.102L69.3628 41.62C69.3638 41.7314 69.4545 41.8209 69.5655 41.8199L71.0702 41.8067C71.1811 41.8057 71.2703 41.7147 71.2693 41.6033L71.2561 40.0853C71.2551 39.974 71.1644 39.8845 71.0535 39.8854Z" fill="white"/>
<path d="M73.2953 39.8945L71.7687 39.8971C71.6658 39.8973 71.5825 39.9812 71.5827 40.0845L71.5854 41.6318C71.5856 41.7351 71.6691 41.8186 71.772 41.8185L73.2987 41.8158C73.4016 41.8156 73.4848 41.7317 73.4846 41.6285L73.4819 40.0811C73.4818 39.9779 73.3982 39.8943 73.2953 39.8945Z" fill="white"/>
<path d="M75.5107 39.8924L73.9913 39.8978C73.8844 39.8981 73.798 39.9854 73.7984 40.0928L73.8037 41.6254C73.8041 41.7328 73.8911 41.8195 73.998 41.8191L75.5173 41.8138C75.6243 41.8134 75.7106 41.7261 75.7102 41.6187L75.7049 40.0861C75.7045 39.9788 75.6176 39.8921 75.5107 39.8924Z" fill="white"/>
<path d="M77.7386 39.8894L76.1901 39.8949C76.0892 39.8952 76.0077 39.9776 76.0081 40.0788L76.0135 41.6335C76.0138 41.7347 76.0959 41.8165 76.1967 41.8162L77.7453 41.8108C77.8462 41.8104 77.9277 41.728 77.9273 41.6268L77.9219 40.0721C77.9215 39.9709 77.8395 39.8891 77.7386 39.8894Z" fill="white"/>
<path d="M79.95 39.8905L78.4014 39.8932C78.3025 39.8934 78.2226 39.974 78.2227 40.0732L78.2254 41.6279C78.2256 41.7271 78.3059 41.8074 78.4047 41.8072L79.9533 41.8045C80.0521 41.8044 80.1321 41.7238 80.1319 41.6245L80.1292 40.0699C80.1291 39.9707 80.0488 39.8904 79.95 39.8905Z" fill="#14E691"/>
<path d="M32 43.9505V42.1612L33.7129 42.1465C33.8493 42.1465 33.9175 42.2149 33.9175 42.3518L33.9138 43.7672C33.9138 43.9212 33.8371 43.9957 33.6837 43.9908L32 43.9505Z" fill="white"/>
<path d="M35.9657 42.1226L34.3807 42.1115C34.2919 42.1109 34.2195 42.1826 34.2188 42.2717L34.2078 43.8556C34.2072 43.9447 34.2787 44.0175 34.3674 44.0181L35.9525 44.0292C36.0412 44.0298 36.1137 43.9581 36.1143 43.869L36.1253 42.285C36.1259 42.1959 36.0545 42.1232 35.9657 42.1226Z" fill="white"/>
<path d="M49.259 42.1183L47.7104 42.1156C47.6096 42.1154 47.5277 42.1973 47.5275 42.2986L47.5248 43.8386C47.5247 43.9398 47.6063 44.022 47.7071 44.0222L49.2557 44.0249C49.3566 44.0251 49.4385 43.9432 49.4387 43.8419L49.4413 42.3019C49.4415 42.2007 49.3599 42.1184 49.259 42.1183Z" fill="white"/>
<path d="M51.4573 42.1174L49.9307 42.1094C49.8278 42.1088 49.7439 42.1921 49.7434 42.2954L49.7354 43.8354C49.7348 43.9387 49.8178 44.0228 49.9207 44.0234L51.4473 44.0314C51.5502 44.0319 51.634 43.9486 51.6346 43.8454L51.6426 42.3054C51.6431 42.2021 51.5602 42.1179 51.4573 42.1174Z" fill="white"/>
<path d="M53.7222 42.1183L52.137 42.1155C52.0523 42.1154 51.9835 42.1842 51.9834 42.2692L51.9806 43.8679C51.9804 43.9529 52.049 44.022 52.1337 44.0222L53.7188 44.0249C53.8036 44.0251 53.8724 43.9563 53.8725 43.8712L53.8753 42.2725C53.8754 42.1875 53.8069 42.1184 53.7222 42.1183Z" fill="white"/>
<path d="M59.9879 42.1133H58.4466C58.3578 42.1133 58.2859 42.1855 58.2859 42.2746V43.8586C58.2859 43.9477 58.3578 44.0199 58.4466 44.0199H59.9879C60.0766 44.0199 60.1486 43.9477 60.1486 43.8586V42.2746C60.1486 42.1855 60.0766 42.1133 59.9879 42.1133Z" fill="white"/>
<path d="M62.248 42.1188L60.641 42.1076C60.5523 42.1069 60.4798 42.1787 60.4792 42.2678L60.4682 43.8517C60.4676 43.9408 60.539 44.0136 60.6278 44.0142L62.2348 44.0255C62.3235 44.0261 62.396 43.9544 62.3966 43.8653L62.4076 42.2813C62.4082 42.1922 62.3368 42.1195 62.248 42.1188Z" fill="white"/>
<path d="M71.1083 42.115L69.5306 42.0984C69.4398 42.0975 69.3654 42.1705 69.3645 42.2617L69.348 43.8456C69.347 43.9367 69.4198 44.0113 69.5106 44.0123L71.0883 44.0289C71.1791 44.0298 71.2534 43.9567 71.2544 43.8656L71.2709 42.2817C71.2719 42.1906 71.199 42.1159 71.1083 42.115Z" fill="white"/>
<path d="M73.299 42.1083L71.7723 42.111C71.6695 42.1112 71.5862 42.1951 71.5864 42.2983L71.589 43.831C71.5892 43.9343 71.6728 44.0178 71.7756 44.0177L73.3023 44.015C73.4052 44.0148 73.4884 43.9309 73.4883 43.8277L73.4856 42.295C73.4854 42.1917 73.4019 42.1081 73.299 42.1083Z" fill="white"/>
<path d="M75.5097 42.1194L74.0123 42.1089C73.8993 42.1081 73.8071 42.1994 73.8063 42.3128L73.7959 43.8087C73.7951 43.9221 73.886 44.0147 73.999 44.0155L75.4964 44.026C75.6094 44.0268 75.7016 43.9355 75.7024 43.8221L75.7128 42.3261C75.7136 42.2127 75.6226 42.1201 75.5097 42.1194Z" fill="white"/>
<path d="M77.6945 42.1104H76.2408C76.1138 42.1104 76.0107 42.2138 76.0107 42.3414V43.7934C76.0107 43.9209 76.1138 44.0244 76.2408 44.0244H77.6945C77.8216 44.0244 77.9246 43.9209 77.9246 43.7934V42.3414C77.9246 42.2138 77.8216 42.1104 77.6945 42.1104Z" fill="white"/>
<path d="M79.9668 42.1117L78.3671 42.1229C78.2824 42.1235 78.2142 42.193 78.2148 42.278L78.2259 43.8766C78.2265 43.9617 78.2957 44.0302 78.3804 44.0296L79.9801 44.0184C80.0648 44.0178 80.133 43.9483 80.1324 43.8633L80.1213 42.2647C80.1207 42.1796 80.0515 42.1111 79.9668 42.1117Z" fill="white"/>
<path d="M32 46.1981V44.3721L33.7166 44.3574C33.8505 44.3574 33.9175 44.4246 33.9175 44.5591L33.9138 45.9708C33.9138 46.1296 33.8347 46.2091 33.6764 46.2091L32 46.1981Z" fill="white"/>
<path d="M35.9369 44.3498L34.4103 44.3444C34.3054 44.344 34.22 44.4291 34.2197 44.5344L34.2144 46.0597C34.214 46.165 34.2987 46.2507 34.4036 46.2511L35.9303 46.2564C36.0352 46.2568 36.1205 46.1717 36.1209 46.0664L36.1262 44.5411C36.1266 44.4358 36.0418 44.3501 35.9369 44.3498Z" fill="white"/>
<path d="M38.1718 44.3333L36.616 44.3524C36.5232 44.3536 36.4489 44.43 36.4501 44.5231L36.4692 46.0997C36.4704 46.1928 36.5465 46.2674 36.6393 46.2663L38.1951 46.2472C38.2878 46.2461 38.3621 46.1696 38.361 46.0765L38.3418 44.4999C38.3407 44.4068 38.2646 44.3322 38.1718 44.3333Z" fill="white"/>
<path d="M40.3606 44.3368L38.8704 44.342C38.7554 44.3424 38.6626 44.4363 38.663 44.5518L38.6682 46.0551C38.6686 46.1705 38.7621 46.2638 38.8771 46.2634L40.3672 46.2581C40.4822 46.2577 40.5751 46.1638 40.5747 46.0484L40.5695 44.5451C40.5691 44.4297 40.4755 44.3364 40.3606 44.3368Z" fill="white"/>
<path d="M42.5775 44.3368L41.0727 44.3421C40.9658 44.3425 40.8795 44.4298 40.8798 44.5371L40.8852 46.0698C40.8855 46.1771 40.9725 46.2638 41.0794 46.2634L42.5842 46.2581C42.6911 46.2578 42.7774 46.1705 42.7771 46.0631L42.7717 44.5305C42.7714 44.4231 42.6844 44.3364 42.5775 44.3368Z" fill="white"/>
<path d="M44.7874 44.3417L43.3119 44.352C43.1929 44.3528 43.0971 44.4504 43.0979 44.5698L43.1082 46.0511C43.1091 46.1706 43.2062 46.2668 43.3252 46.266L44.8007 46.2556C44.9197 46.2548 45.0155 46.1573 45.0147 46.0378L45.0044 44.5565C45.0036 44.437 44.9064 44.3408 44.7874 44.3417Z" fill="white"/>
<path d="M47.0297 44.3407L45.5103 44.346C45.4014 44.3464 45.3134 44.4353 45.3138 44.5447L45.3191 46.0627C45.3195 46.172 45.4081 46.2604 45.517 46.26L47.0364 46.2547C47.1453 46.2543 47.2333 46.1653 47.2329 46.056L47.2276 44.538C47.2272 44.4286 47.1386 44.3403 47.0297 44.3407Z" fill="white"/>
<path d="M49.2413 44.3386L47.722 44.3466C47.6111 44.3472 47.5216 44.4379 47.5222 44.5493L47.53 46.0453C47.5306 46.1567 47.621 46.2465 47.7319 46.2459L49.2513 46.2379C49.3622 46.2373 49.4517 46.1466 49.4511 46.0352L49.4433 44.5392C49.4427 44.4278 49.3523 44.338 49.2413 44.3386Z" fill="white"/>
<path d="M51.4979 44.3478L49.8908 44.345C49.8102 44.3448 49.7446 44.4104 49.7445 44.4914L49.7417 46.0974C49.7416 46.1784 49.8069 46.2442 49.8875 46.2443L51.4946 46.2471C51.5753 46.2473 51.6408 46.1817 51.6409 46.1007L51.6437 44.4947C51.6439 44.4137 51.5786 44.3479 51.4979 44.3478Z" fill="white"/>
<path d="M59.9842 44.3467H58.4502C58.3595 44.3467 58.2859 44.4206 58.2859 44.5117V46.0883C58.2859 46.1795 58.3595 46.2533 58.4502 46.2533H59.9842C60.075 46.2533 60.1486 46.1795 60.1486 46.0883V44.5117C60.1486 44.4206 60.075 44.3467 59.9842 44.3467Z" fill="white"/>
<path d="M62.2231 44.3506H60.6453C60.5485 44.3506 60.47 44.4294 60.47 44.5266V46.0739C60.47 46.1711 60.5485 46.2499 60.6453 46.2499H62.2231C62.3199 46.2499 62.3984 46.1711 62.3984 46.0739V44.5266C62.3984 44.4294 62.3199 44.3506 62.2231 44.3506Z" fill="white"/>
<path d="M77.6889 44.3408L76.2499 44.3383C76.1187 44.3381 76.0123 44.4446 76.012 44.5762L76.0095 46.0209C76.0093 46.1525 76.1154 46.2594 76.2465 46.2596L77.6855 46.2622C77.8166 46.2624 77.9231 46.1559 77.9234 46.0242L77.9259 44.5796C77.9261 44.4479 77.82 44.3411 77.6889 44.3408Z" fill="white"/>
<path d="M79.9493 44.3509L78.4081 44.3428C78.3072 44.3422 78.225 44.4239 78.2245 44.5251L78.2164 46.0724C78.2159 46.1737 78.2972 46.2562 78.3981 46.2567L79.9394 46.2648C80.0402 46.2654 80.1224 46.1837 80.1229 46.0825L80.131 44.5351C80.1315 44.4339 80.0502 44.3514 79.9493 44.3509Z" fill="white"/>
<path d="M32 46.5869L33.7385 46.5942C33.8578 46.5942 33.9175 46.6541 33.9175 46.7739L33.9138 48.2442C33.9138 48.3811 33.8457 48.4484 33.7093 48.4459L32 48.4166V46.5869Z" fill="white"/>
<path d="M35.9438 46.5775L34.4026 46.5667C34.3017 46.566 34.2194 46.6475 34.2187 46.7488L34.208 48.2887C34.2073 48.39 34.2885 48.4726 34.3893 48.4733L35.9306 48.4841C36.0314 48.4848 36.1138 48.4033 36.1145 48.3021L36.1252 46.7621C36.1259 46.6609 36.0447 46.5782 35.9438 46.5775Z" fill="white"/>
<path d="M38.2079 46.5847L36.6229 46.5681C36.5361 46.5671 36.4651 46.637 36.4642 46.7241L36.4477 48.308C36.4467 48.395 36.5163 48.4664 36.6031 48.4673L38.1881 48.484C38.2748 48.4849 38.3459 48.415 38.3468 48.3279L38.3633 46.744C38.3642 46.657 38.2946 46.5856 38.2079 46.5847Z" fill="white"/>
<path d="M40.3874 46.5733L38.8607 46.5706C38.7558 46.5705 38.6706 46.6557 38.6704 46.761L38.6678 48.279C38.6676 48.3843 38.7525 48.4698 38.8574 48.47L40.3841 48.4727C40.489 48.4728 40.5741 48.3876 40.5743 48.2823L40.577 46.7643C40.5771 46.659 40.4923 46.5735 40.3874 46.5733Z" fill="white"/>
<path d="M42.5828 46.5712L41.0781 46.5739C40.9692 46.5741 40.881 46.6629 40.8812 46.7722L40.8838 48.2755C40.884 48.3849 40.9725 48.4734 41.0814 48.4732L42.5862 48.4706C42.6951 48.4704 42.7832 48.3816 42.783 48.2722L42.7804 46.7689C42.7802 46.6595 42.6918 46.571 42.5828 46.5712Z" fill="white"/>
<path d="M44.8144 46.5712L43.295 46.5739C43.1861 46.5741 43.0979 46.6629 43.0981 46.7722L43.1007 48.2755C43.1009 48.3849 43.1894 48.4734 43.2983 48.4732L44.8177 48.4705C44.9266 48.4704 45.0148 48.3815 45.0146 48.2722L45.0119 46.7689C45.0118 46.6595 44.9233 46.571 44.8144 46.5712Z" fill="white"/>
<path d="M47.0294 46.5801H45.5246C45.4116 46.5801 45.3201 46.672 45.3201 46.7854V48.2741C45.3201 48.3875 45.4116 48.4794 45.5246 48.4794H47.0294C47.1423 48.4794 47.2339 48.3875 47.2339 48.2741V46.7854C47.2339 46.672 47.1423 46.5801 47.0294 46.5801Z" fill="#E619DC"/>
<path d="M60.0178 46.5708L58.3962 46.5822C58.3316 46.5826 58.2797 46.6355 58.2801 46.7003L58.2917 48.365C58.2921 48.4298 58.3448 48.4819 58.4094 48.4815L60.031 48.4701C60.0955 48.4697 60.1475 48.4168 60.147 48.352L60.1355 46.6873C60.135 46.6225 60.0823 46.5704 60.0178 46.5708Z" fill="white"/>
<path d="M62.2198 46.5769L60.642 46.5824C60.5492 46.5827 60.4743 46.6585 60.4746 46.7517L60.48 48.3063C60.4803 48.3995 60.5558 48.4747 60.6486 48.4744L62.2264 48.4689C62.3192 48.4686 62.3941 48.3928 62.3938 48.2996L62.3884 46.745C62.3881 46.6518 62.3126 46.5766 62.2198 46.5769Z" fill="white"/>
<path d="M64.4709 46.5812L62.8201 46.5784C62.7475 46.5782 62.6885 46.6372 62.6884 46.7101L62.6855 48.3455C62.6854 48.4184 62.7442 48.4776 62.8168 48.4777L64.4676 48.4806C64.5403 48.4807 64.5992 48.4217 64.5994 48.3488L64.6022 46.7135C64.6023 46.6406 64.5436 46.5814 64.4709 46.5812Z" fill="white"/>
<path d="M75.5267 46.5772L73.9854 46.5745C73.8906 46.5744 73.8136 46.6514 73.8134 46.7466L73.8107 48.3159C73.8105 48.4111 73.8872 48.4884 73.9821 48.4885L75.5233 48.4912C75.6181 48.4914 75.6951 48.4144 75.6953 48.3192L75.698 46.7499C75.6982 46.6547 75.6215 46.5774 75.5267 46.5772Z" fill="white"/>
<path d="M77.7114 46.5721L76.2139 46.58C76.0989 46.5806 76.0062 46.6746 76.0068 46.7901L76.0146 48.286C76.0152 48.4015 76.1089 48.4945 76.2239 48.4939L77.7213 48.4861C77.8363 48.4855 77.929 48.3914 77.9284 48.276L77.9206 46.78C77.92 46.6646 77.8263 46.5715 77.7114 46.5721Z" fill="white"/>
<path d="M79.9406 46.5801H78.4212C78.3164 46.5801 78.2313 46.6654 78.2313 46.7707V48.2887C78.2313 48.394 78.3164 48.4794 78.4212 48.4794H79.9406C80.0455 48.4794 80.1305 48.394 80.1305 48.2887V46.7707C80.1305 46.6654 80.0455 46.5801 79.9406 46.5801Z" fill="#FF1928"/>
<path d="M87.3622 50.6865L85.4849 50.6572C85.3827 50.6548 85.3254 50.6034 85.3133 50.5032L85.2658 50.0999C85.2618 50.0674 85.2513 50.0361 85.2349 50.0078C85.2185 49.9796 85.1966 49.9551 85.1706 49.9359C85.1445 49.9166 85.1149 49.903 85.0835 49.8959C85.0521 49.8888 85.0197 49.8883 84.9882 49.8945L84.791 49.9312C84.6157 49.963 84.5292 49.8909 84.5317 49.7149L84.539 47.9585C84.539 47.8045 84.6157 47.7202 84.7691 47.7055C85.0929 47.6713 85.2621 47.4929 85.2767 47.1702C85.284 47.0235 85.3607 46.9502 85.5068 46.9502H88.8122C88.8494 46.9499 88.8861 46.9576 88.9201 46.9728C88.9541 46.9881 88.9845 47.0104 89.0093 47.0385C89.0342 47.0666 89.0529 47.0997 89.0642 47.1356C89.0756 47.1716 89.0793 47.2096 89.0752 47.2472L88.9766 48.1969C88.9703 48.2555 88.9429 48.3096 88.8997 48.3489C88.8565 48.3882 88.8006 48.4098 88.7428 48.4095L86.241 48.4279C86.1547 48.4265 86.0712 48.4581 86.0073 48.5163C85.9434 48.5745 85.904 48.6549 85.897 48.7413C85.89 48.8276 85.916 48.9133 85.9697 48.9811C86.0234 49.0489 86.1008 49.0936 86.1862 49.1062C86.6342 49.182 87.0907 49.2003 87.5558 49.1612C87.7385 49.1465 87.9221 49.1701 88.0954 49.2303C88.2686 49.2905 88.4275 49.3861 88.5623 49.511C88.6971 49.636 88.8048 49.7877 88.8786 49.9565C88.9524 50.1254 88.9907 50.3078 88.9912 50.4922V51.9845C88.9912 52.1116 88.9279 52.174 88.8013 52.1715L88.4397 52.1679C88.4157 52.1674 88.3918 52.1716 88.3695 52.1804C88.3472 52.1892 88.3268 52.2023 88.3095 52.219C88.2922 52.2356 88.2783 52.2556 88.2687 52.2777C88.2591 52.2997 88.2539 52.3235 88.2534 52.3475L88.2461 52.7289C88.2437 52.8511 88.1816 52.9122 88.0598 52.9122H84.7033C84.681 52.9122 84.6588 52.9078 84.6382 52.8993C84.6176 52.8908 84.5989 52.8783 84.5832 52.8626C84.5676 52.8468 84.5553 52.8282 84.547 52.8078C84.5388 52.7873 84.5348 52.7655 84.5353 52.7435L84.5463 51.6032C84.5463 51.4956 84.5998 51.4419 84.707 51.4419H87.2819C87.4304 51.4419 87.5132 51.3673 87.5302 51.2182L87.5668 50.9212C87.5838 50.7672 87.5156 50.689 87.3622 50.6865Z" fill="white"/>
<path d="M90.3024 52.1751L89.981 52.1641C89.8422 52.1592 89.774 52.0871 89.7765 51.9478C89.7911 50.8771 89.477 47.9145 90.3536 47.2691C90.9891 46.7961 92.3769 46.9025 93.1074 47.0051C93.4066 47.0467 93.6808 47.1953 93.8794 47.4237C94.0781 47.6521 94.1878 47.9449 94.1885 48.2481L94.2031 51.8158C94.2056 51.9673 94.1349 52.0688 93.9913 52.1201C93.7259 52.2155 93.5652 52.4098 93.5092 52.7031C93.4981 52.7601 93.4676 52.8114 93.423 52.8482C93.3783 52.885 93.3223 52.905 93.2645 52.9048L90.7151 52.9121C90.591 52.9121 90.5289 52.851 90.5289 52.7288L90.5252 52.4061C90.5252 52.3461 90.502 52.2884 90.4604 52.2453C90.4188 52.2022 90.3622 52.177 90.3024 52.1751ZM92.7951 48.8875C92.7953 48.822 92.7825 48.7571 92.7577 48.6966C92.7328 48.636 92.6963 48.581 92.6503 48.5346C92.6042 48.4882 92.5495 48.4514 92.4893 48.4262C92.4291 48.4011 92.3645 48.388 92.2993 48.3879L91.766 48.387C91.7008 48.3869 91.6362 48.3997 91.5759 48.4246C91.5156 48.4496 91.4607 48.4862 91.4145 48.5324C91.3683 48.5787 91.3317 48.6336 91.3066 48.694C91.2815 48.7545 91.2686 48.8193 91.2685 48.8848L91.2648 50.9748C91.2647 51.0403 91.2774 51.1051 91.3023 51.1657C91.3271 51.2262 91.3636 51.2813 91.4097 51.3277C91.4557 51.374 91.5104 51.4109 91.5707 51.436C91.6309 51.4612 91.6955 51.4742 91.7607 51.4743L92.2939 51.4753C92.3592 51.4754 92.4238 51.4626 92.4841 51.4376C92.5444 51.4127 92.5992 51.376 92.6454 51.3298C92.6916 51.2836 92.7283 51.2287 92.7534 51.1682C92.7784 51.1078 92.7914 51.0429 92.7915 50.9774L92.7951 48.8875Z" fill="white"/>
<path d="M96.4639 50.8733L96.4785 52.6736C96.4785 52.8325 96.3994 52.912 96.2411 52.912H95.244C95.1003 52.912 95.0273 52.8386 95.0249 52.692L95.0066 47.1773C95.0066 47.0233 95.0821 46.9463 95.233 46.9463H99.2944C99.4186 46.9463 99.4807 47.0086 99.4807 47.1333L99.4771 48.182C99.4771 48.3286 99.4028 48.4032 99.2543 48.4056L96.6465 48.4423C96.5501 48.4413 96.4577 48.4788 96.3895 48.5466C96.3214 48.6143 96.2831 48.7067 96.2831 48.8035C96.2831 48.9002 96.3214 48.9934 96.3895 49.0625C96.4577 49.1316 96.5501 49.171 96.6465 49.172L98.5421 49.205C98.6735 49.2074 98.7393 49.2734 98.7393 49.403V50.459C98.7417 50.5958 98.6748 50.6643 98.5384 50.6643L96.6648 50.6716C96.5308 50.6716 96.4639 50.7388 96.4639 50.8733Z" fill="white"/>
<path d="M101.628 48.4166H100.361C100.328 48.4166 100.296 48.4035 100.273 48.3801C100.25 48.3567 100.237 48.325 100.237 48.292L100.255 47.071C100.255 47.0379 100.268 47.0062 100.291 46.9828C100.315 46.9594 100.346 46.9463 100.379 46.9463H104.572C104.605 46.9463 104.637 46.9594 104.66 46.9828C104.683 47.0062 104.696 47.0379 104.696 47.071L104.704 48.292C104.704 48.325 104.69 48.3567 104.667 48.3801C104.644 48.4035 104.612 48.4166 104.579 48.4166H103.345C103.329 48.4166 103.312 48.4198 103.297 48.4261C103.282 48.4324 103.269 48.4416 103.257 48.4531C103.245 48.4647 103.236 48.4785 103.23 48.4936C103.224 48.5087 103.221 48.5249 103.221 48.5413V52.7873C103.221 52.8204 103.208 52.8521 103.184 52.8754C103.161 52.8988 103.129 52.912 103.096 52.912H101.877C101.844 52.912 101.812 52.8988 101.789 52.8754C101.766 52.8521 101.752 52.8204 101.752 52.7873V48.5413C101.752 48.5249 101.749 48.5087 101.743 48.4936C101.737 48.4785 101.728 48.4647 101.716 48.4531C101.705 48.4416 101.691 48.4324 101.676 48.4261C101.661 48.4198 101.645 48.4166 101.628 48.4166Z" fill="white"/>
<path d="M32 48.791L33.7349 48.7983C33.8542 48.7983 33.9138 48.857 33.9138 48.9743L33.9175 50.4447C33.9175 50.6036 33.8383 50.6806 33.6801 50.6757L32 50.628V48.791Z" fill="white"/>
<path d="M35.9698 48.7893L34.3701 48.7837C34.2854 48.7834 34.2164 48.8522 34.2161 48.9372L34.2106 50.5432C34.2103 50.6282 34.2787 50.6974 34.3634 50.6977L35.9631 50.7033C36.0479 50.7036 36.1168 50.6349 36.1171 50.5499L36.1227 48.9439C36.1229 48.8588 36.0545 48.7896 35.9698 48.7893Z" fill="white"/>
<path d="M62.2155 48.7932L60.6669 48.7877C60.568 48.7874 60.4876 48.8675 60.4873 48.9668L60.4819 50.5214C60.4815 50.6207 60.5614 50.7014 60.6602 50.7017L62.2088 50.7072C62.3076 50.7075 62.3881 50.6273 62.3884 50.5281L62.3938 48.9735C62.3941 48.8742 62.3143 48.7935 62.2155 48.7932Z" fill="#1987E6"/>
<path d="M64.4146 48.7832H62.8879C62.779 48.7832 62.6907 48.8719 62.6907 48.9812V50.5065C62.6907 50.6159 62.779 50.7045 62.8879 50.7045H64.4146C64.5235 50.7045 64.6118 50.6159 64.6118 50.5065V48.9812C64.6118 48.8719 64.5235 48.7832 64.4146 48.7832Z" fill="white"/>
<path d="M66.6608 48.7832H65.1049C65.0081 48.7832 64.9296 48.862 64.9296 48.9592V50.5285C64.9296 50.6257 65.0081 50.7045 65.1049 50.7045H66.6608C66.7576 50.7045 66.8361 50.6257 66.8361 50.5285V48.9592C66.8361 48.862 66.7576 48.7832 66.6608 48.7832Z" fill="white"/>
<path d="M68.8688 48.7821L67.3275 48.7848C67.2246 48.785 67.1414 48.8689 67.1416 48.9722L67.1443 50.5195C67.1444 50.6228 67.228 50.7063 67.3308 50.7062L68.8721 50.7035C68.975 50.7033 69.0583 50.6194 69.0581 50.5161L69.0554 48.9688C69.0552 48.8655 68.9717 48.7819 68.8688 48.7821Z" fill="white"/>
<path d="M71.0604 48.7762L69.5556 48.7841C69.4467 48.7847 69.3589 48.8738 69.3594 48.9832L69.3674 50.5158C69.368 50.6252 69.4568 50.7133 69.5657 50.7128L71.0704 50.7048C71.1793 50.7043 71.2672 50.6152 71.2666 50.5058L71.2586 48.9732C71.2581 48.8638 71.1693 48.7756 71.0604 48.7762Z" fill="white"/>
<path d="M73.2755 48.7812L71.7854 48.7864C71.6744 48.7868 71.5848 48.8774 71.5852 48.9888L71.5905 50.5068C71.5908 50.6181 71.6811 50.7081 71.792 50.7077L73.2822 50.7025C73.3931 50.7021 73.4827 50.6115 73.4824 50.5001L73.4771 48.9821C73.4767 48.8708 73.3864 48.7808 73.2755 48.7812Z" fill="white"/>
<path d="M75.4702 48.7832H74.0458C73.9146 48.7832 73.8083 48.8899 73.8083 49.0215V50.4662C73.8083 50.5978 73.9146 50.7045 74.0458 50.7045H75.4702C75.6013 50.7045 75.7076 50.5978 75.7076 50.4662V49.0215C75.7076 48.8899 75.6013 48.7832 75.4702 48.7832Z" fill="white"/>
<path d="M77.7301 48.7914L76.2327 48.7757C76.1157 48.7744 76.0199 48.8686 76.0187 48.9861L76.0031 50.482C76.0018 50.5995 76.0957 50.6957 76.2127 50.6969L77.71 50.7126C77.827 50.7139 77.9229 50.6197 77.9241 50.5022L77.9397 49.0063C77.9409 48.8888 77.8471 48.7926 77.7301 48.7914Z" fill="white"/>
<path d="M32 52.8895V51.0415L33.7056 51.0342C33.8469 51.0342 33.9163 51.1038 33.9138 51.2432V52.7172C33.9138 52.8394 33.853 52.9005 33.7312 52.9005L32 52.8895Z" fill="white"/>
<path d="M35.9741 51.0212L34.3597 51.0268C34.2811 51.0271 34.2175 51.0914 34.2178 51.1703L34.2234 52.7763C34.2236 52.8553 34.2876 52.9191 34.3663 52.9188L35.9806 52.9132C36.0593 52.9129 36.1228 52.8487 36.1226 52.7697L36.117 51.1637C36.1167 51.0847 36.0527 51.0209 35.9741 51.0212Z" fill="#18BEE6"/>
<path d="M64.4477 51.0027L62.8553 51.0083C62.7706 51.0085 62.7021 51.0777 62.7024 51.1628L62.708 52.7614C62.7083 52.8465 62.7772 52.9152 62.8619 52.9149L64.4543 52.9093C64.5391 52.909 64.6075 52.8398 64.6072 52.7548L64.6016 51.1561C64.6014 51.0711 64.5324 51.0024 64.4477 51.0027Z" fill="white"/>
<path d="M66.6611 51.0027L65.0906 51.0082C64.9978 51.0085 64.9229 51.0843 64.9232 51.1775L64.9287 52.7468C64.929 52.8399 65.0045 52.9152 65.0972 52.9149L66.6677 52.9094C66.7605 52.909 66.8355 52.8332 66.8352 52.7401L66.8297 51.1708C66.8294 51.0776 66.7539 51.0024 66.6611 51.0027Z" fill="white"/>
<path d="M68.8362 50.9979L67.3606 51.0057C67.2416 51.0063 67.1456 51.1037 67.1463 51.2232L67.154 52.7045C67.1546 52.824 67.2516 52.9203 67.3706 52.9197L68.8461 52.9119C68.9651 52.9113 69.0611 52.8139 69.0605 52.6945L69.0528 51.2131C69.0521 51.0937 68.9552 50.9973 68.8362 50.9979Z" fill="white"/>
<path d="M71.0396 51.0039L69.5933 50.9989C69.4662 50.9984 69.3628 51.1015 69.3624 51.229L69.3573 52.681C69.3569 52.8086 69.4595 52.9124 69.5866 52.9128L71.0329 52.9179C71.16 52.9184 71.2634 52.8153 71.2638 52.6877L71.2689 51.2357C71.2693 51.1081 71.1667 51.0044 71.0396 51.0039Z" fill="white"/>
<path d="M73.2771 51.0039L71.7942 51.0065C71.6772 51.0067 71.5826 51.102 71.5828 51.2195L71.5853 52.7008C71.5855 52.8183 71.6806 52.9133 71.7975 52.9131L73.2804 52.9105C73.3974 52.9103 73.4921 52.8149 73.4919 52.6975L73.4893 51.2162C73.4891 51.0987 73.3941 51.0037 73.2771 51.0039Z" fill="white"/>
<path d="M75.5134 51.0138L74.0233 51.0034C73.9103 51.0026 73.8181 51.0939 73.8173 51.2073L73.8069 52.7032C73.8061 52.8166 73.897 52.9092 74.01 52.91L75.5001 52.9205C75.6131 52.9212 75.7053 52.83 75.7061 52.7166L75.7165 51.2206C75.7173 51.1072 75.6263 51.0146 75.5134 51.0138Z" fill="#FF4B00"/>
</g>
<defs>
<clipPath id="clip0_122_1662">
<rect width="93.5" height="22" fill="white" transform="translate(32 31)"/>
</clipPath>
</defs>
</svg>
