<svg width="151" height="84" viewBox="0 0 151 84" fill="none" xmlns="http://www.w3.org/2000/svg">
<g clip-path="url(#clip0_99_1257)">
<path d="M110.145 48.2452C107.358 48.2452 104.94 48.2452 101.998 48.2452C96.9096 48.2452 86.7334 48.2452 81.6445 48.2452C78.7371 48.2452 77.7118 48.2452 76.0035 48.2452H36.4126C34.5247 48.2452 33.5665 47.315 33.1829 46.2415C32.9471 45.5836 32.9471 44.8677 33.138 44.1953L34.5541 39.2434C34.9524 37.9122 36.1318 35.6943 39.0227 35.6943H79.7325C82.5718 35.6943 84.4836 35.6943 87.2501 35.6943H108.34C111.972 35.7763 112.898 35.6943 113.97 35.6943H115.922C118.576 35.6943 119.741 37.4684 119.314 39.4439C119.018 40.8749 117.809 44.6671 117.809 44.6671C117.338 46.7851 115.509 48.2452 112.898 48.2452H110.145ZM72.0144 45.3967L74.05 45.3831L75.1706 41.8767C75.4211 40.8604 74.8759 39.9875 73.7994 39.9875C73.7994 39.9875 72.3531 39.9875 71.8675 39.9875C70.5249 39.973 69.5218 40.8749 69.1831 41.8051L68.0478 45.3967L70.1274 45.3831L71.1599 41.9339L73.0322 41.9484L72.0144 45.3967ZM69.5218 40.2307L70.3184 37.9412H67.6348L66.7941 40.2307H69.5218ZM63.1956 41.5764H61.3812L62.6046 37.7551H60.5258L59.2566 41.7052C59.0216 42.7207 59.5521 43.5937 60.6286 43.5937C60.6286 43.5937 60.6286 43.5937 60.6442 43.5937L60.0688 45.3967H62.1035L62.6945 43.5937C63.9766 43.551 64.9357 42.6925 65.2605 41.7914L66.5729 37.756H64.5382L63.1956 41.5764ZM57.7688 37.7551C57.7688 37.7551 56.3225 37.7551 55.8369 37.7551C54.4943 37.7406 53.4765 38.6281 53.1525 39.5727L51.1912 45.4121H53.2553L53.8895 43.5228L55.7186 43.5373L55.1725 45.4121H57.1632L59.1547 39.6444C59.3905 38.6281 58.86 37.7551 57.7688 37.7551ZM46.8695 37.7551L44.3622 45.3967H50.3799L51.6621 41.5764H49.6421L49.0226 43.4648H47.1494L48.9785 37.7551H46.8695ZM44.0676 37.7551H40.1735L37.6368 45.4121H39.7018L40.3351 43.5228H42.1495C42.1495 43.5228 44.0382 43.609 44.7907 41.7334C45.0257 41.1463 45.4837 39.6871 45.4837 39.6871C45.8362 38.5283 45.1579 37.7551 44.0676 37.7551ZM56.3666 41.5764H54.4208L55.0844 39.6871H57.0016L56.3666 41.5764ZM42.813 41.5764H40.8811L41.5456 39.6871H43.4628L42.813 41.5764Z" fill="#2185C7"/>
<path d="M79.6102 36.7137C80.7942 32.9719 84.2663 30.4287 88.191 30.4287L108.792 30.4287C112.173 30.4287 114.579 33.7139 113.559 36.937L110.317 47.1837C109.133 50.9255 105.661 53.4687 101.737 53.4687H81.1352C77.7546 53.4687 75.3483 50.1835 76.3681 46.9604L79.6102 36.7137Z" fill="black"/>
<path d="M108.681 32.1598C108.681 32.1598 105.318 32.1743 104.093 32.1598C100.761 32.1171 97.9724 34.3349 97.1473 36.8821L94.8016 44.08C92.1914 50.3341 95.5247 51.3931 97.8256 51.3786C99.2114 51.3786 100.583 51.3786 101.66 51.3786C104.491 51.3786 107.604 49.3903 108.43 46.8431L111.616 36.9965C112.47 34.707 111.069 32.1598 108.681 32.1598ZM86.4407 44.2515H88.9031L88.1073 46.6707H83.2992L83.9636 44.6381L84.082 44.2805L85.6596 39.5292L86.4416 37.1398H95.644L95.6889 36.9965L97.0307 32.4457C97.0307 32.4457 89.3912 32.4602 88.1661 32.4457C84.8337 32.403 82.1043 34.864 81.5159 36.8821L79.1702 44.08C76.236 50.7787 80.0998 51.3786 82.1941 51.3786C83.58 51.3786 84.9512 51.3786 86.0286 51.3786C89.4949 51.3786 91.972 49.2469 92.7988 46.6997L94.9372 39.5164H88.0028L86.4407 44.2515ZM103.533 46.6852H99.0792L102.176 37.1253H106.63L103.533 46.6852Z" fill="#ED1F24"/>
</g>
<defs>
<clipPath id="clip0_99_1257">
<rect width="87" height="24" fill="white" transform="translate(33 30)"/>
</clipPath>
</defs>
</svg>
