<svg width="151" height="84" viewBox="0 0 151 84" fill="none" xmlns="http://www.w3.org/2000/svg">
<g clip-path="url(#clip0_122_1922)">
<path d="M41 42.1059C41 41.2588 40.4706 40.4118 40.2589 40.2C39.3059 39.3529 38.4589 39.3529 37.7177 39.3529C37.0824 39.3529 33.9059 39.3529 28.2941 39.3529V38.1882C33.2706 38.1882 36.1294 38.1882 36.7647 38.1882C37.8236 38.1882 38.2471 38.1882 39.2 38.5059C40.0471 38.8235 40.6824 39.7765 40.7883 39.5647C40.8941 39.3529 40.4706 38.4 39.6236 37.3412C38.9883 36.7059 37.9294 35.6471 37.0824 34.9059C35.2824 33.4235 32.3177 33 31.0471 33C28.7177 33 26.0706 33 23 33C23 38.2941 23 41.0471 23 41.4706C23 42.1059 23.1059 43.0588 24.0589 43.8C24.9059 44.4353 25.6471 44.4353 26.8118 44.5412C27.9765 44.5412 30.9412 44.5412 35.6 44.5412V45.7059C30.0941 45.7059 27.2353 45.7059 27.1294 45.7059C26.0706 45.7059 25.5412 45.6 25.1177 45.4941C24.8 45.3882 24.3765 45.1765 24.0589 44.9647C23.5294 44.6471 23.1059 44.2235 23 44.2235C22.7883 44.3294 23.8471 46.1294 24.3765 46.8706C25.5412 48.3529 27.0236 49.3069 27.553 49.6246C29.7765 51.0011 31.7883 51.0011 32.8471 51.0011C34.1177 51.0011 36.6589 51.0011 40.3647 51.0011C40.6824 51.0011 40.8941 50.7893 40.8941 50.4716C41 46.0235 41 43.2706 41 42.1059Z" fill="url(#paint0_linear_122_1922)"/>
<path d="M66.7293 38.718C66.5176 38.718 66.4117 38.8239 66.3058 38.9298C66.1999 39.0357 66.094 39.1416 66.094 39.3533C66.094 39.5651 66.1999 39.671 66.3058 39.7769C66.4117 39.8827 66.6235 39.9886 66.7293 39.9886C66.9411 39.9886 67.047 39.8827 67.1529 39.7769C67.2587 39.671 67.3646 39.4592 67.3646 39.3533C67.3646 39.1416 67.2587 39.0357 67.1529 38.9298C67.047 38.8239 66.9411 38.718 66.7293 38.718Z" fill="white"/>
<path d="M60.3764 40.8357C59.2117 40.8357 58.2587 41.2592 57.7293 42.318V41.0475H56.8822V49.9416H57.7293V46.1298C58.2587 47.1886 59.1058 47.6111 60.3764 47.6111C61.4352 47.6111 62.2822 47.2935 62.8117 46.5523C63.3411 45.917 63.6587 45.1758 63.6587 44.2229C63.6587 43.271 63.3411 42.4229 62.8117 41.7876C62.1764 41.1533 61.4352 40.8357 60.3764 40.8357ZM62.494 46.2357C61.9646 46.7651 61.3293 47.0828 60.3764 47.0828C59.5293 47.0828 58.894 46.871 58.4705 46.3416C58.0469 45.8122 57.7293 45.1769 57.7293 44.4357V44.3298C57.7293 43.5886 57.9411 42.9533 58.3646 42.4239C58.894 41.7886 59.5293 41.471 60.3764 41.471C61.2234 41.471 61.9646 41.7886 62.494 42.318C62.9175 42.8475 63.1293 43.4838 63.1293 44.2239C63.1293 45.071 62.9175 45.7063 62.494 46.2357Z" fill="white"/>
<path d="M124.012 42.4239C123.376 41.471 122.529 41.0475 121.47 41.0475C120.518 41.0475 119.776 41.3651 119.141 42.0004C118.506 42.6357 118.188 43.3769 118.188 44.3298C118.188 45.2817 118.506 46.0239 119.14 46.6592C119.776 47.2945 120.623 47.6122 121.47 47.6122C122.635 47.6122 123.482 47.1897 124.012 46.2357V47.5063H124.859V41.2592H124.012V42.4239ZM123.27 46.1298C122.741 46.5533 122.212 46.871 121.47 46.871C120.729 46.871 120.2 46.6592 119.67 46.1298C119.141 45.6004 118.929 45.071 118.929 44.3298C118.929 43.5886 119.141 43.0592 119.67 42.5298C120.2 42.0004 120.729 41.7886 121.47 41.7886C122.212 41.7886 122.741 42.0004 123.27 42.5298C123.8 42.9533 124.012 43.5886 124.012 44.3298C124.012 45.071 123.694 45.6004 123.27 46.1298Z" fill="white"/>
<path d="M73.294 40.8357C72.7646 40.8357 72.3411 40.9416 71.9175 41.1533C71.494 41.3651 71.1764 41.6828 70.9646 42.1063V41.0475H70.1175V47.5063H70.9646V43.5886C70.9646 42.9533 71.1764 42.4239 71.5999 42.1063C72.0234 41.6828 72.4469 41.471 73.0822 41.471C74.4587 41.471 75.094 42.1063 75.094 43.4828V47.4004H75.9411V43.4828C75.8352 41.6828 74.9881 40.8357 73.294 40.8357Z" fill="white"/>
<path d="M82.0822 40.8357C81.1304 40.8357 80.2822 41.1533 79.7528 41.8945C79.1175 42.5298 78.9058 43.3769 78.9058 44.2239C78.9058 45.072 79.2234 45.9191 79.7528 46.5533C80.3892 47.1897 81.1304 47.6122 82.0822 47.6122C83.0352 47.6122 83.8822 47.2945 84.4117 46.5533C84.9411 45.918 85.2587 45.1769 85.2587 44.2239C85.2587 43.271 84.9411 42.5298 84.4117 41.8945C83.7764 41.1533 83.0352 40.8357 82.0822 40.8357ZM83.8822 46.1298C83.4587 46.6592 82.8234 46.9769 82.0822 46.9769C81.3411 46.9769 80.7058 46.6592 80.2822 46.1298C79.8587 45.6004 79.647 44.9651 79.647 44.2239C79.647 43.4838 79.8587 42.8475 80.2822 42.318C80.7058 41.7886 81.2352 41.471 82.0822 41.471C82.9293 41.471 83.4587 41.7886 83.8822 42.318C84.3058 42.8475 84.5175 43.4838 84.5175 44.2239C84.4117 45.071 84.1999 45.7063 83.8822 46.1298Z" fill="white"/>
<path d="M95.2116 40.8357C94.7881 40.8357 94.3646 40.9416 94.0459 41.1533C93.7282 41.3651 93.4106 41.6828 93.1988 42.1063C92.8812 41.2592 92.14 40.7298 91.0812 40.7298C90.2341 40.7298 89.5999 41.1533 89.1753 41.8945V41.0475H88.4341V47.5063H89.1753V43.4828C89.1753 42.9533 89.387 42.4239 89.7047 42.1063C90.0234 41.6828 90.4469 41.471 90.9763 41.471C92.0352 41.471 92.6705 42.1063 92.6705 43.3769V47.5063H93.4116V43.3769C93.4116 42.8475 93.5175 42.4239 93.941 42.0004C94.1528 41.6828 94.5763 41.471 95.1058 41.471C95.7421 41.471 96.1646 41.6828 96.3763 42.0004C96.5881 42.318 96.7999 42.7416 96.7999 43.3769V47.5063H97.541V43.271C97.541 42.5298 97.3293 41.8945 96.9058 41.471C96.4822 41.0475 95.9528 40.8357 95.2116 40.8357Z" fill="white"/>
<path d="M106.012 41.8945C105.482 41.1533 104.741 40.8357 103.682 40.8357C102.729 40.8357 101.987 41.1533 101.458 41.8945C100.928 42.5298 100.611 43.3769 100.611 44.3298C100.611 45.3886 100.928 46.2357 101.458 46.7651C101.987 47.4004 102.728 47.718 103.682 47.718C104.529 47.718 105.164 47.5063 105.8 46.9769C106.222 46.5533 106.541 46.0239 106.647 45.3886H105.906C105.694 45.918 105.483 46.2357 105.165 46.5533C104.742 46.871 104.318 46.9769 103.683 46.9769C102.941 46.9769 102.412 46.7651 101.988 46.3416C101.565 45.918 101.353 45.2828 101.353 44.4357H106.753C106.753 43.3769 106.541 42.5298 106.012 41.8945ZM101.459 43.9063C101.565 43.1651 101.776 42.6357 102.2 42.2122C102.518 41.6828 103.047 41.471 103.682 41.471C105.059 41.471 105.8 42.2122 106.012 43.8004H101.459V43.9063Z" fill="white"/>
<path d="M53.2822 43.3769C52.8587 43.1651 52.0117 42.8474 50.7411 42.5298C49.7881 42.318 49.1528 42.1063 48.8352 42.0004C48.1999 41.6827 47.8822 41.3651 47.8822 40.8357C47.8822 40.3063 48.094 39.8827 48.6234 39.5651C49.0469 39.3533 49.6822 39.1416 50.5293 39.1416C51.3764 39.1416 52.0116 39.3533 52.5411 39.671C53.0705 39.9886 53.2822 40.518 53.3881 41.2592H54.2352C54.1293 40.3063 53.8117 39.671 53.1764 39.1416C52.5411 38.718 51.694 38.4004 50.6352 38.4004C49.6822 38.4004 48.8352 38.6122 48.1999 38.9298C47.4587 39.3533 47.1411 39.8827 47.1411 40.7298C47.1411 41.471 47.5646 42.0004 48.3058 42.4239C48.6234 42.6357 49.3646 42.8474 50.5293 43.1651C51.694 43.4838 52.3293 43.6945 52.6469 43.8014C53.2822 44.1191 53.5999 44.6485 53.5999 45.1779C53.5999 45.7073 53.2822 46.1309 52.7528 46.4485C52.2234 46.7662 51.4822 46.871 50.6352 46.871C49.6822 46.871 49.0469 46.6603 48.5175 46.3416C47.9881 45.9191 47.6705 45.2827 47.5646 44.4357H46.7175C46.8234 45.4945 47.2469 46.3416 47.9881 46.871C48.6234 47.2945 49.5764 47.6122 50.6352 47.6122C51.7999 47.6122 52.6469 47.4004 53.2822 46.9769C54.0234 46.5533 54.3411 45.918 54.3411 45.1769C54.5528 44.4357 54.1293 43.8004 53.2822 43.3769Z" fill="white"/>
<path d="M128.882 38.4004H128.141V47.5063H128.882V38.4004Z" fill="white"/>
<path d="M112.576 40.8357C112.154 40.8357 111.729 40.9416 111.307 41.1533C110.882 41.3651 110.67 41.6828 110.459 42.1063V41.0475H109.718V47.5063H110.459V43.5886C110.459 42.9533 110.67 42.4239 111.095 42.1063C111.412 41.6828 111.941 41.471 112.47 41.471C113.741 41.471 114.376 42.1063 114.376 43.4828V47.4004H115.118V43.4828C115.118 41.7886 114.27 40.8357 112.576 40.8357Z" fill="white"/>
<path d="M67.0469 41.0475H66.3058V47.5063H67.0469V41.0475Z" fill="white"/>
</g>
<defs>
<linearGradient id="paint0_linear_122_1922" x1="23.0006" y1="42" x2="40.9743" y2="42" gradientUnits="userSpaceOnUse">
<stop stop-color="#78C7DC"/>
<stop offset="1" stop-color="#A568AE"/>
</linearGradient>
<clipPath id="clip0_122_1922">
<rect width="105.882" height="18" fill="white" transform="translate(23 33)"/>
</clipPath>
</defs>
</svg>
